<?xml version="1.0" encoding="utf-8"?>
<!-- Generator: Adobe Illustrator 19.0.0, SVG Export Plug-In . SVG Version: 6.00 Build 0)  -->
<svg version="1.1" id="Capa_1" xmlns="http://www.w3.org/2000/svg" xmlns:xlink="http://www.w3.org/1999/xlink" x="0px" y="0px"
	 viewBox="0 0 612 792" style="enable-background:new 0 0 612 792;" xml:space="preserve">
<style type="text/css">
	.st0{fill:#BD7B2A;}
	.st1{fill:#DC4D53;}
	.st2{fill:#DC4D54;}
	.st3{fill:#B43536;}
	.st4{fill:#88AD40;}
	.st5{fill:#F2CF9D;}
	.st6{fill:#EBBA70;}
	.st7{fill:#D1A065;}
	.st8{fill:#DDBA8F;}
	.st9{fill:#D2A165;}
	.st10{fill:#F2CE9C;}
	.st11{fill:#EBBA6F;}
	.st12{fill:#EB6F71;}
	.st13{fill:#E8908F;}
	.st14{fill:#E89190;}
	.st15{fill:#EB6F72;}
	.st16{fill:#E48585;}
	.st17{fill:#E94242;}
	.st18{fill:#CC3737;}
	.st19{fill:#F6DEBC;}
	.st20{fill:#DEBC92;}
	.st21{fill:#FFFDFD;}
	.st22{fill:#EFB4B1;}
	.st23{fill:#FFFEFE;}
	.st24{fill:#FFFCFC;}
	.st25{fill:#FEFBFB;}
</style>
<g>
	<path class="st0" d="M530.8,457.3c0.5,1.1-0.2,2-0.5,2.9c-3.9,11.4-7.8,22.9-11.9,34.2c-5.3,14.9-11.5,29.4-17.7,43.9
		c-5.3,12.2-10,24.7-15,37c-6.7,16.6-14,32.9-21.6,49.2c-2.7,5.9-5.6,11.7-8,17.7c-4.9,12-12.8,21.7-22.9,29.7
		c-10,8-21.1,13.8-32.9,18.6c-12.6,5.1-25.7,8.5-39,10.9c-9.6,1.7-19.2,3-28.9,3.7c-17.9,1.4-35.8,1.9-53.7,1.2
		c-7-0.2-14.1-0.6-21.1-1.1c-18.9-1.4-37.6-4.1-55.8-9.3c-14.5-4.2-28.3-9.9-41-18c-8.5-5.4-16.1-11.7-22.4-19.6
		c-3.3-4.1-6.1-8.6-8.2-13.4c-5.1-11.3-10.1-22.7-15.2-34c-9.4-20.9-17.8-42.3-25.9-63.7c-2.6-6.9-5.1-13.9-7.7-20.8
		c-0.4-1-0.7-2.1-1.1-3.2c3.4,0.7,6.7,1.4,10.1,2.1c4.2,0.9,8.5,1.8,12.7,2.7c0.7,0.9,1.3,1.8,2,2.6c-2.4-0.3-4.9-0.6-7.3-1
		c-2.8-0.4-5.6-1.1-8.7-1.3c-0.1,1.7,0.7,2.9,1.2,4.2c4.6,11.4,9.3,22.8,13.9,34.2c6,15,12,30.1,18,45.1
		c4.7,11.8,9.6,23.6,14.2,35.4c0.7,1.8,1.7,3.3,3.1,4.7c3,3.1,6,6.3,9,9.5c0.2,0.2,0.6,0.4,1,0.6c1.3-0.9,2.4-0.4,3.5,0.6
		c1.1,1.1,2.4,2,3.7,2.9c0.6,0.4,1.4,0.5,2.2,0.7c0.3,0.6,0.5,1.1,0.8,1.6c0.4,0.6,0.8,1.2,1.2,1.8c0.2,0.6,0.3,1.3,0.7,1.8
		c0.5,0.6,1.2,0.9,1.9,1.4c5,3.3,10.4,6,15.9,8.6c0.2,0.1,0.4,0,0.6,0c0.4-0.3,0.8-0.7,1-0.9c4.5,1.7,8.8,3.4,13.1,4.9
		c4.2,1.5,8.5,2.8,12.8,4c2.6,0.7,5.1,1.7,7.8,1.7c0.7,1.8,1.9,2.9,4,2.8c0.2,0,0.4,0.1,0.6,0.2c3.5,0.6,7,1.2,10.4,1.9
		c0.8,0.1,1-0.3,1.1-0.8c1.1,0,2.3-0.1,3.3,0.2c4.9,0.9,9.8,1.7,14.8,1.9c0.6,0,1.1,0.1,1.7,0.2c1.2,0.1,2.4,0.4,3.6,0.4
		c2.5,0.1,4.9,0,7.4,0.1l0.1,0c0,1.2,0.5,1.9,1.7,2c3.8,0.3,7.7,0.9,11.5,0.7c0.6,0,1.2-0.2,2.1-0.4c-0.2-1.8-0.4-3.4-0.6-5
		c0.1-0.2,0.1-0.4,0.2-0.5c2.8-0.8,5.6-1.5,8.3-2.4c6.2-2.1,12.3-4.4,18.5-6.6c1.6-0.6,3.1-1.2,4.6-1.9c0,3.7,0.2,7.3-0.5,11
		c-0.3,1.8-0.5,3.7,0.2,5.5c1.9,0.3,10.8,0.4,12.5,0.2c1.3-0.2,1.8-0.6,1.9-1.9c0.3-2.5,0.4-5.1,0.8-7.6c0.4-2.5,0.4-5.1,0.8-7.6
		c0.4-2.3,0.5-4.6,0.5-7c0.3-0.4,0.5-0.8,0.8-1.3c0.6-0.2,1.3-0.4,1.9-0.7c4.9-2.6,9.7-5.4,14.4-8.5c5.4-3.7,11-7.2,16.1-11.3
		c1.4-1.2,3.1-2.1,4.7-3.1c-0.2,1.5-0.5,3.1-0.7,4.6c-1.5,7.7-2.9,15.3-4.4,23c-1,5-2,10.1-2.9,15.1c-0.2,0.8-0.4,1.8,0.4,2.6
		c1.9-0.3,3.9-0.6,5.9-1c2.3-0.4,4.6-0.9,6.9-1.3c1.3-0.2,2-0.8,2.2-2.1c0.6-3.2,1.4-6.3,2.2-9.5c2.7-11.2,5.5-22.3,8.2-33.5
		c1.5-6.1,2.9-12.2,4.3-18.2c0.3-0.8,0.7-1.7,1-2.5c0.7-0.5,1.5-0.9,2.1-1.6c2.3-2.5,4.6-4.9,6.7-7.5c3-3.7,6-7.5,8.8-11.3
		c3-4,5.9-8.1,8.7-12.3c1.8-2.7,3.4-5.5,5.1-8.2c4.1-6.5,7.6-13.4,11.2-20.2c1.3-2.5,2.4-5,3.5-7.6c1.2-2.6,2.3-5.3,3.4-8
		c0.7-1.6,1.3-3.3,2-5c1.1-0.1,1.9,0.4,2.7,1.1c2.7,2.6,4.2,5.8,4.6,9.5c0.5,4.4-0.1,8.7-1.9,12.8c-0.3,0.7-0.6,1.5-0.8,2.2
		c-5.3,15.7-10.6,31.3-15.9,47c-4.1,12.1-8.2,24.1-12.2,36.2c-2.6,7.8-5.3,15.7-7.9,23.5c-0.3,0.8-0.8,1.6-0.5,2.5
		c0.2,0.1,0.5,0.2,0.6,0.2c1.5-0.6,3.2-1.2,4.6-2c3.8-2.1,7.5-4.4,11.3-6.5c1.7-0.9,2.7-2.1,3.3-3.9c2.9-7.9,5.9-15.7,9-23.5
		c3.4-8.7,6.9-17.5,10.3-26.2c4.9-12.7,9.7-25.5,14.6-38.2c5.2-13.7,10.6-27.3,15.9-40.9c0.5-1.2,1-2.5,1.7-3.6
		c2.5-4,5.2-7.8,9.1-10.7c3.8-2.8,7.6-5.4,12.2-6.9c2-0.6,4-1.2,6.2-1.9c0.5-1.2,1.1-2.4,1.6-3.6c0.9-2.2,1.6-4.4,2.5-6.6
		c4.7-11.4,8.7-23,12.8-34.6c0.7-2,1.4-4,2-6c0.2-0.7,0.5-1.5-0.3-2.4c-0.6,0-1.4-0.1-2.2-0.2c2.1-1.8,4.2-3.6,6.4-5.3
		C527.5,458.4,528.9,457.2,530.8,457.3z"/>
	<path class="st1" d="M103.1,528c-4.2-0.9-8.5-1.8-12.7-2.7c-3.4-0.7-6.7-1.4-10.1-2.1c-4-1.1-8-2.2-11.9-3.3
		c-11.1-3.2-22.1-6.7-32.6-11.4c-2.7-1.2-5.4-2.7-8-4.3c-1.3-0.8-2.5-1.9-3.6-3c-2.8-3.1-2.4-6.5,1-9c1.3-1,2.9-1.8,4.4-2.3
		c2.5-0.9,5.1-1.5,7.8-2.1c2.8-0.6,5.7-1,8.6-1.3c1.5-0.2,3.1-0.2,4.7-0.1c5.1,0.4,10.2,1,15.4,1.5c3.2,0.3,6.5,0.7,9.7,1
		c9.6,0.8,19.2,1.5,28.8,2.3c12.7,1,25.5,1.6,38.2,2.1c13.8,0.5,27.5,0.6,41.3,0.4c9.8-0.1,19.7-0.6,29.5-1c5.5-0.2,11-0.5,16.4-1
		c6.1-0.5,12.3-1.1,18.4-1.7c5.3-0.5,10.7-1,16-1.6c6.6-0.7,13.1-1.5,19.7-2.4c6.5-0.9,13.1-1.9,19.6-2.9
		c14.3-2.2,28.4-5.3,42.3-9.1c35.9-9.7,69.3-25.1,100.7-45c13.1-8.3,25.7-17.2,37.4-27.3c9.6-8.2,18.5-16.9,26-27
		c3.3-4.5,6.3-9.3,8.5-14.4c2.5-5.7,3.9-11.7,3.1-18c-0.7-5.2-2.6-9.9-6-14c-3.4-4.1-7.9-6.6-13-7.7c-5.4-1.2-10.9-1.1-16.4-0.4
		c-12.9,1.7-24.9,6.1-36.7,11.4c-8.7,3.9-17.1,8.3-25.3,13.2c-2.2,1.3-4.3,2.8-6.3,4.4c-13.3,10.3-27.3,19.5-42.6,26.8
		c-8.1,3.9-16.5,7-25.3,8.7c-6.4,1.3-12.9,1.6-19.4,0.5c-11.3-1.9-19.3-8.4-24.8-18.2c-2.8-5-4.3-10.3-4.1-16.1
		c0.2-4.3,1.3-8.4,3-12.3c2.5-5.5,6-10.2,10.1-14.6c4.8-5.1,10.1-9.5,15.8-13.5c8.8-6.2,18.2-11.5,27.9-16.1
		c1.4-0.7,2.8-1.4,4.2-2.1c17.4-10,35.8-17.4,55.3-21.9c7.4-1.7,14.9-3,22.5-3.8c7.9-0.8,15.8-1.3,23.8-1.1
		c21.7,0.6,42.6,4.7,62.9,12.6c0.8,0.3,1.7,0.7,2.4,1.1c18.5,11,32.9,25.7,41.8,45.5c5.1,11.2,7.5,23,7.5,35.2
		c0,10.4-1.9,20.5-5.5,30.2c-0.5,1.4-0.9,2.8-1.2,4.2c-2.1,9-6,17.3-10.7,25.3c-5.9,10-13.2,18.9-21.4,27.1
		c-3.4,3.4-6.9,6.6-10.6,10.2c0.3,0.2,0.6,0.4,1,0.7c-2-0.2-3.3,1.1-4.7,2.1c-2.2,1.7-4.3,3.5-6.4,5.3c-1.5,1.1-3.1,2.2-4.6,3.3
		c-11.3,7.9-23.1,15-35.4,21.2c-8.4,4.2-16.9,8.3-25.6,11.7c-7.3,2.9-14.6,5.6-21.9,8.4c-10.4,4-21.2,7.2-32,10
		c-6.8,1.8-13.7,3.4-20.5,4.8c-7.5,1.6-15.1,3.1-22.6,4.5c-3.2,0.6-6.4,1-9.6,1.4c-2.9,0.4-5.7,0.9-8.6,1.2c-3.3,0.4-6.7,0.2-10,0.9
		c-4.2,0.8-8.5,0.4-12.7,1c-4.3,0.6-8.7,0.3-13,0.7c-6.3,0.5-12.8-0.2-19.1,0.7c-15.4,0.1-30.9,0.1-46.3,0.6
		c-10.9,0.3-21.7,0.1-32.6,0.2c-4.1,0-8.3,0.5-12.4,0.5c-3.8,0-7.6-0.5-11.4-0.4c-8.2,0.1-16.3-0.7-24.5-0.8c-0.3,0-0.7,0-1-0.1
		c-4-0.4-8-0.8-12-1.2c-3.1-0.3-6.2-0.4-9.3-0.8c-5.1-0.6-10.2-1.3-15.3-2c-2.2-0.3-4.4-0.8-6.6-1.1
		C109.4,529,106.2,528.5,103.1,528z M503.6,276.6c-0.8-1-1.9-0.6-2.8-0.7l-0.3,0c-0.8-0.9-1.9-0.7-2.9-0.7l0,0
		c-1-1.1-2.2-0.6-3.4-0.7c0,0,0,0,0,0c-0.5-0.2-1-0.6-1.5-0.6c-3.5-0.5-7.1-0.9-10.6-1.5c-3.7-0.7-7.5-1-11.3-1.1
		c-8.6-0.1-17.2-0.5-25.8,0.4c-5.3,0.6-10.6,1.2-15.9,2.1c-7.4,1.2-14.6,3-21.8,5.2c-14.4,4.4-28.1,10.3-41.1,17.8
		c-1.1,0.6-2.1,1.3-3.2,1.8c-10.1,4.4-19.6,9.7-28.6,16.2c-4.2,3-8.1,6.3-12,9.6c-3.5,3-6.2,6.7-8.9,10.4c-2.2,3-3.8,6.4-4.7,9.9
		c-1.6,6.3-1.2,12.4,1.8,18.2c2.3,4.4,5.2,8.4,9.3,11.3c5.4,3.8,11.4,5.5,17.9,5.7c4.5,0.2,8.9-0.7,13.2-1.6
		c6.4-1.4,12.4-3.6,18.4-6.2c3.1-1.4,6.1-2.7,9.1-4.3c3.1-1.6,6.1-3.4,9-5.1c8.4-4.9,16.5-10.3,24.2-16.2c2.3-1.8,4.5-3.8,6.9-5.3
		c4.9-3,9.8-5.8,14.9-8.5c4.9-2.6,10-5,15.1-7.3c4.4-2,8.9-3.7,13.4-5.4c6.8-2.5,13.8-4.5,21-5.5c3.4-0.5,6.8-1.1,10.3-1.1
		c2.3,0,4.7,0.2,7,0.5c3.4,0.6,6.8,1.4,10,2.8c7.7,3.6,12.8,9.6,15.5,17.6c0.9,2.6,1.6,5.4,1.9,8.1c0.3,3.1,0.1,6.2-0.5,9.3
		c-1.1,5.5-3,10.8-5.7,15.7c-2,3.5-4.1,6.9-6.5,10.2c-2.9,3.8-5.8,7.6-9.2,11.1c-4.1,4.3-8.3,8.4-12.5,12.7
		c-0.2,0.1-0.4,0.2-0.4,0.4c-1.5,0.6-2.5,1.8-3.5,2.9c-0.4,0.6-0.8,1.1-1.2,1.7c-1.1,0.2-2.2,0.6-2.8,1.6c-0.4,0.4-0.8,0.7-1.2,1.1
		c-1.1,0.5-2.1,1.1-2.7,2.3l0,0c-1.4,0.6-2.6,1.5-3.6,2.7c-0.2,0.1-0.4,0.2-0.5,0.4c-1.1,0.5-2.2,1.1-2.7,2.3l0,0
		c-0.6,0.3-1.3,0.5-1.8,0.8c-3.2,2.3-6.3,4.6-9.5,6.9c-8.2,5.7-16.6,11-25.2,16c-7.5,4.4-15.2,8.6-22.9,12.6
		c-4.1,2.1-8.2,4-12.4,5.9c-4.5,2.1-8.9,4.1-13.5,6c-9.6,3.8-19.2,7.4-29,10.4c-7.8,2.4-15.6,4.6-23.5,6.5
		c-7.3,1.7-14.6,3.2-21.9,4.7c-3.7,0.8-7.4,1.4-11.2,2c-3.7,0.6-7.5,0.9-11.3,1.6c-4.7,0.8-9.5,1.4-14.2,1.9
		c-2.4,0.3-4.9,0.5-7.3,0.8c-2.9,0.4-5.7,0.8-8.6,1.1c-3,0.3-6,0.4-9,0.8c-4.4,0.6-8.8,1.2-13.3,1.3c-0.4,0-0.9,0.1-1.3,0.1
		c-1.7,0.2-3.3,0.4-5,0.5c-4.3,0.2-8.7,1-13,0.8c-0.3,0-0.7,0.1-1,0.1c-1.4,0.2-2.9,0.4-4.3,0.4c-2.8,0.1-5.6-0.2-8.4,0.2
		c-2.8,0.4-5.6,0.4-8.4,0.5c-5.6,0.1-11.2,0.1-16.8,0.1c-1,0-2,0-3,0.1c-4.5,0.8-9,0.6-13.4,0.3c-2.9-0.2-5.8-0.4-8.7-0.4
		c-5.7-0.1-11.4-0.1-17.1-0.1c-0.9,0-1.8,0.1-2.7-0.1c-2.2-0.6-4.4-0.4-6.7-0.5c-2.7-0.1-5.4,0.2-8-0.2c-2.2-0.3-4.4-0.4-6.7-0.5
		c-4.3-0.2-8.7-0.5-13-0.7c-0.3,0-0.7-0.1-1-0.1c-1.3-0.2-2.6-0.4-4-0.4c-4-0.3-8-0.5-12-0.8c-0.2,0-0.4-0.1-0.7-0.1
		c-3.7-0.4-7.3-0.8-11-1.1c-3.3-0.3-6.7-0.5-10-0.8c-0.2,0-0.4-0.1-0.7-0.1c-3.4-0.4-6.9-0.8-10.3-1.1c-6.3-0.5-12.5,0.5-18.6,2
		c-1.6,0.4-3.2,1.1-4.7,1.7c-0.4,0.2-0.8,0.7-1.3,1.2c0.9,0.7,1.5,1.4,2.2,1.8c3,1.7,6,3.5,9.2,4.9c10.6,4.6,21.5,8.2,32.6,11.1
		c12.7,3.4,25.5,6.3,38.6,8.3c6.1,0.9,12.1,1.9,18.2,2.7c2.2,0.3,4.4,0.4,6.7,0.7c3.1,0.3,6.2,0.9,9.3,1.1c4.4,0.4,8.9,0.5,13.4,0.8
		c0.3,0,0.7,0,1,0c3.6,0.9,7.4,0.5,11,0.6c1.1,0.1,2.2,0.1,3.3,0.2c1.3,0.1,2.7,0.4,4,0.4c9.7,0,19.5,0,29.2,0
		c0.9,0,1.8,0.1,2.7-0.1c2.3-0.6,4.7-0.5,7-0.5c16.1,0,32.3-0.1,48.4-0.1c1,0,2.1,0.1,3-0.1c2.3-0.6,4.7-0.4,7-0.5
		c5.7-0.1,11.4-0.1,17.1-0.1c0.9,0,1.8,0.1,2.7-0.1c2.4-0.6,4.9-0.5,7.3-0.5c2.5-0.1,5,0.2,7.4-0.1c3.5-0.5,6.9-0.5,10.4-0.6
		c0.4,0,0.9,0,1.3-0.1c1.9-0.6,3.8-0.4,5.7-0.6c3.2-0.2,6.4-0.5,9.7-0.8c0.1,0,0.2,0,0.3,0c2.5-0.4,5-0.9,7.6-1.1
		c5.1-0.4,10.2-1.4,15.2-2.3c9.8-1.8,19.5-3.8,29.1-6.1c10.1-2.4,20.1-5.1,30-8.4c9.6-3.3,19.2-6.8,28.7-10.4
		c7.7-3,15.3-6.3,22.7-9.9c4.1-2,8.2-4.1,12.3-6.2c0.8-0.4,1.6-0.8,2.3-1.3c0.3-0.2,0.4-0.7,0.6-1.1l0,0c2.3,0,4-1.2,5.6-2.7l0.3,0
		c0.9-0.5,1.8-0.8,2.6-1.4c0.4-0.3,0.6-0.9,0.8-1.3l0,0c1.5,0,2.9-0.2,3.4-2l0,0c1.6,0,1.7-0.1,2-1.4l0,0c1.2,0.2,2.2-0.2,2.7-1.4
		l0,0c1,0,1.7-0.4,2-1.4l0,0c1,0,1.7-0.4,2-1.4c0,0,0,0,0,0c0.6-0.3,1.3-0.4,1.8-0.8c8.7-5.9,16.8-12.5,24.4-19.7
		c5.7-5.4,11-11.1,15.8-17.3c6.6-8.8,12.3-18.1,16-28.5c1.2-3.4,2.2-6.8,2.5-10.4c0,0,0,0,0,0c0.4-0.8,1-1.5,1.3-2.3
		c0.7-1.9,1.2-3.8,1.7-5.8c1.6-5.3,2.5-10.7,2.9-16.1c0.5-6.8,0.2-13.6-1.1-20.3c-1.4-6.8-3.4-13.4-6.3-19.7
		c-4.2-9.1-10.1-17.1-16.9-24.4c-1.6-1.7-3.5-3.1-5.2-4.7c-4.5-4.4-9.7-7.9-14.9-11.3c-1.6-1-3.4-1.7-5.1-2.4
		c-1.3-0.6-2.7-1.1-4.1-1.5c-2.4-0.8-4.7-2.1-7.4-1.8l0,0c-0.5-0.9-1.3-0.7-2-0.7l0,0c-1.1-1.3-2.5-1.4-4.1-1.4l0,0
		C505.5,276.4,504.5,276.7,503.6,276.6L503.6,276.6z"/>
	<path class="st2" d="M344.9,179.3c3.2-0.3,6.5-0.6,9.7-0.9c3.1-0.3,6.2-0.8,9.3-1c11.2-0.8,22.4-1.4,33.6-1
		c5.6,0.2,11.2,0.4,16.8,0.9c11.7,1.1,23.3,3,34.3,7.3c4.9,1.9,9.6,4.4,13.6,7.8c5.1,4.2,8.5,9.5,9.5,16.1c0.8,4.9,0.5,9.9-0.8,14.7
		c-3.4,12.8-10,23.6-20.1,32.3c-3.4,3-7.4,5.1-11.8,6c-1.6,0.3-3.3,0.5-5,0.4c-3.1-0.1-5.1-2.4-5.1-5.5c0-1.6,0.5-3.1,1.3-4.5
		c1.2-2.4,3-4.5,5-6.3c3.6-3.3,5.8-7.4,7.2-11.9c1.8-6.2,0.4-11.5-4.2-16c-2.1-2-4.6-3.6-7.2-4.9c-5.2-2.6-10.8-4.2-16.6-5.3
		c-12.1-2.5-24-1.4-35.9,1.7c-11.2,2.9-21.8,7.5-31.9,13c-14.2,7.7-27.4,17-39.9,27.2c-14.3,11.7-27.8,24.4-40.2,38.1
		c-14,15.4-26.1,32.1-36.6,50.1c-12.1,20.6-21.6,42.5-28.7,65.3c-3.7,11.9-11.7,19.8-23.3,23.6c-14.9,5-31.7-0.2-41.9-12.4
		c-3.8-4.6-6.1-9.9-7.3-15.7c-1.2-5.7-1.5-11.5-1-17.4c1.1-14.1,5.2-27.4,10.7-40.4c7.9-18.5,18.2-35.7,29.6-52.2
		c11-15.8,23.4-30.3,37.6-43.3c15.5-14.4,32.8-26.3,51.4-36.3c2.1-1.1,4.2-2.2,6.2-3.3c0.6-0.3,1.2-0.6,1.3-1.4
		c1.2,1.2,2.5,2.1,4.1,2.8c0.6,0.3,1.1,0.7,1.7,1.1c-0.5,0.4-1,0.9-1.6,1.1c-7.5,3.7-15,7.6-22,12.1c-5.5,3.5-10.9,7.1-16.2,10.8
		c-4.7,3.3-9.2,6.7-13.4,10.6c-2.9,2.6-6,5-8.8,7.7c-7.1,6.8-14.1,13.8-20.3,21.5c-2.5,3-5.1,5.9-7.4,9.1
		c-6.5,8.6-12.5,17.4-18.2,26.5c-6.3,10.2-12.2,20.6-17.1,31.5c-2.8,6.3-5.3,12.8-7.4,19.4c-2.3,7.1-3.8,14.5-4.5,21.9
		c-0.6,6.1-0.3,12.3,1.2,18.3c1.7,6.8,5.3,12.3,10.7,16.6c6.1,4.9,13.2,7.3,21.1,7.3c2.4,0,4.7-0.4,7-0.8c3.9-0.8,7.4-2.5,10.7-4.7
		c3.7-2.5,6.5-5.8,8.9-9.5c1.2-1.8,2.1-3.7,2.6-5.8c2.2-7.8,4.8-15.3,7.8-22.8c2-5,4-10,6.2-14.9c2-4.5,4.1-8.9,6.3-13.3
		c2-3.9,4.3-7.6,6.3-11.5c3.4-6.5,7.4-12.7,11.5-18.9c5.2-7.8,10.7-15.4,16.6-22.8c4.3-5.4,8.7-10.8,13.5-15.8
		c7.8-8.2,15.7-16.3,24.1-23.8c5-4.4,10-8.9,15.2-13.1c6-4.9,12.1-9.5,18.4-13.9c10-7,20.4-13.3,31.5-18.5
		c7.7-3.7,15.6-6.6,23.9-8.8c6.3-1.7,12.6-3,19.1-3c1.9,0,3.8,0.1,5.7,0c6-0.2,11.8,0.7,17.5,2.1c7.5,1.9,14.8,4.1,21,9.2
		c5.1,4.2,8.3,9.2,8.3,16c0,1.2,0,2.5,0,3.7c0,0.8-0.1,1.6-0.3,2.3c-1.1,4.1-2.9,8-5.4,11.5c-0.9,1.3-2,2.4-3,3.6
		c-3.1,2.6-4.3,4.6-4.5,7.1c1.7,0.6,3.2-0.1,4.6-1c1.8,0.1,3.2-0.9,4.6-1.8c4-2.5,7.1-6.1,10.2-9.6c3.3-3.8,5.9-8.1,7.9-12.7
		c2.6-5.9,4.3-11.9,4.1-18.4c-0.2-5.4-2.1-9.9-5.7-13.9c-2.4-2.6-5.3-4.4-8.3-6.1c-4.1-2.3-8.5-3.9-12.9-5.4c-0.4,0-0.9,0-1.3-0.1
		c-0.5-0.2-0.9-0.4-1.4-0.6c-0.7,0-1.4,0-2.1-0.1c-0.2,0-0.3,0-0.5,0c-1.1-0.8-2.4-1.1-3.7-1.3c-3.2-0.5-6.4-0.9-9.5-1.5
		c-4.4-0.8-8.8-1.4-13.2-1.3c-0.8,0-1.5-0.1-2.3-0.2c-1.1-0.1-2.2-0.4-3.3-0.4c-7,0-14,0-21.1,0c-1.6,0-3.2-0.3-4.7,0.1
		c-2.1,0.5-4.2,0.4-6.3,0.5c-1.3,0-2.7-0.1-4,0.2c-1.7,0.5-3.3,0.4-5,0.5c-2.9,0.2-5.8,0.3-8.6,0.9c-1.8,0.4-3.6,0.1-5.3,0.6
		c-1.5,0.5-3.1,0.5-4.6,0.5C343.6,183.3,344.3,181.3,344.9,179.3z"/>
	<path class="st3" d="M344.9,179.3c-0.7,2-1.3,4-2,6c-1.4,2.8-2.8,5.5-4.7,8c-1.6,2-3.2,4-5,5.8c-1.8,1.8-3.9,3.2-5.9,4.8
		c-0.2,0.1-0.4,0.1-0.6,0.2c-6.8,4.3-14.2,7-22.1,8.2c-5.3,0.8-10.5,1.4-15.9,0.7c-5.6-0.7-10.9-2.2-16.1-4.2
		c-0.7-0.3-1.5-0.5-2.2-0.7c-0.5-0.4-1.1-0.8-1.7-1.1c-1.5-0.7-2.9-1.7-4.1-2.8c-12.1-8-19.5-19.1-21.6-33.5
		c-0.8-5.6-0.2-11.2,1.4-16.6c2.2-7,5.7-13.3,10.9-18.6c7.1-7.1,15.7-9.6,25.4-8.4c2.5,0.3,5,1.1,7.5,1.7c1.3,0.2,2.6,1.1,4,0.7
		c1.3-0.4,2.6-0.7,3.8-1.1c3.7-1.3,7.4-2.6,11.2-3.3c4.1-0.7,8.2-0.8,12.3,0.1c6,1.3,10.9,4.5,15,9c5.8,6.4,9.3,13.9,11,22.2
		C347.2,164.1,346.8,171.7,344.9,179.3z M307.9,208c4.5-0.8,8.7-2.6,12.9-4.6c6.4-3.1,11.4-7.8,15.4-13.5c4-5.7,5.9-12.2,6.6-19.1
		c0.5-4.7,0.3-9.4-0.8-14c-1.2-5.5-3.3-10.6-6.3-15.4c-2.2-3.4-5.2-6.2-8.2-8.8c-2.4-2-5.4-3.2-8.4-3.9c-1.2-0.3-2.4-0.5-3.6-0.6
		c-1.4-0.1-2.9-0.7-4.1,0.5c-1.4,0.1-3-0.1-4.3,0.2c-4.2,1.2-8.3,2.5-12.5,3.9c-0.7,0.2-1.3,0.8-2,1.2c-0.1-0.7-0.5-1.1-1.2-1.2
		c-0.7-0.1-1.5-0.1-2.2-0.1c-4.6-1.4-9.3-2.2-14.2-2.1c-3.5,0.1-6.6,0.9-9.7,2.3c-4.6,2.1-8.1,5.4-11,9.5c-2,2.8-3.5,5.7-4.9,8.8
		c-1.8,4.1-2.6,8.5-3.2,12.9c-0.4,3.3,0.4,6.4,1,9.6c0.8,4.4,2.7,8.5,4.9,12.4c2.9,5.3,7.1,9.4,11.7,13.2c4.1,3.3,8.8,5.8,13.8,7.5
		c4.3,1.5,8.7,2.8,13.4,2.5c2.5-0.1,4.9-0.1,7.4,0C301.7,209.6,304.8,208.9,307.9,208z"/>
	<path class="st4" d="M292.3,129.4c-1.4,0.3-2.7-0.5-4-0.7c0-1.6,0.2-3.1,0.1-4.7c-0.4-13.7,1.5-27,5.8-40c7.4-22.7,20.8-40.9,40-55
		c2.6-1.9,5.4-3.7,8-5.5c0.5-0.3,1-0.5,1.6-0.9c0.6,0.9,1.2,1.7,1.7,2.5c-0.5,1.2-1.5,1.5-2.3,2c-6.9,4.4-13.3,9.4-19.2,15.2
		c-14.4,14.2-23.8,31.2-28.6,50.8c-2.4,9.8-3.5,19.8-3.4,29.9C291.9,125.2,292.2,127.3,292.3,129.4z"/>
	<path class="st5" d="M324.9,675.2c-0.3,0.4-0.5,0.8-0.8,1.3c-0.8,0.3-1.7,0.5-2.5,0.9c-2.4,1.2-4.7,2.4-7.1,3.5
		c-2.1,0.9-4.1,2.2-6.5,2.3c0.2-2.1,0.6-4.2,0.6-6.3c-0.1-6.5,1.1-12.9,0.8-19.4c0-0.4,0.1-0.9,0.1-1.3c0.2-1.4,0.4-2.9,0.4-4.3
		c0.1-2.5-0.3-5,0.2-7.4c0.7-3.8,0.4-7.6,0.6-11.4c0-0.8-0.1-1.6,0.2-2.3c0.6-1.6,0.4-3.3,0.5-5c0.2-6.7,0.5-13.4,0.7-20.1
		c0-0.4,0.1-0.9,0.2-1.3c0.1-1.3,0.4-2.6,0.4-4c0.1-2.6-0.2-5.2,0.2-7.7c0.6-3.3,0.4-6.7,0.6-10c0.1-2.2-0.3-4.3-0.8-6.3
		c-2.5-9-10.5-15.3-20.1-15.4c-4.6,0-8.7,1.5-12.4,4.3c-3.9,2.9-6.2,6.7-7.6,11.2c-1.4,4.5-1,9.3-0.6,14c0.2,1.8,0.4,3.5,0.4,5.3
		c0,2.4,0,4.7,0.1,7.1c0,0.9,0.1,1.8,0.2,2.7c0.1,1.4,0.4,2.9,0.4,4.3c0.1,2.8,0,5.6,0.1,8.4c0,0.9,0.1,1.8,0.2,2.7
		c0.1,1.4,0.4,2.9,0.4,4.3c0.1,2.8,0,5.6,0.1,8.4c0,0.9,0.1,1.8,0.1,2.7c0.1,1.5,0.4,3.1,0.5,4.6c0.1,2.8,0,5.6,0.1,8.4
		c0,0.9,0.1,1.8,0.2,2.7c0.1,1.3,0.4,2.7,0.4,4c0.1,2.9,0.1,5.8,0.1,8.7c0,0.8-0.1,1.6,0.1,2.3c0.6,1.9,0.4,3.8,0.5,5.7
		c0.1,2.9-0.2,5.9,0.2,8.7c0.4,2.7,0.4,5.3,0.5,8c0.1,1.8,0.1,3.6,0.2,5.4c-0.1,0.2-0.1,0.4-0.2,0.5c-1.9-0.1-3.6,0.7-5.4,1.1
		c-3.1,0.6-6.1,2-9.3,1.6c0,0-0.1,0-0.1,0c0-2,0.2-4.1-0.1-6c-0.7-3.6-0.6-7.3-1.1-11c-0.5-3.7-0.6-7.6-0.8-11.3
		c0-0.2,0-0.4-0.1-0.7c-0.9-3.6-0.6-7.3-1.1-11c-0.5-3.5-0.6-7.1-0.8-10.7c0-0.1,0-0.2,0-0.3c-1-3.5-0.5-7.1-1.1-10.6
		c-0.6-3.6-0.6-7.3-0.8-11c0-0.2,0-0.5-0.1-0.7c-0.9-3.5-0.6-7.1-1.1-10.6c-0.6-3.6-0.6-7.3-0.8-11c0-0.2,0-0.4-0.1-0.7
		c-0.9-3.6-0.6-7.3-1.1-11c-0.5-3.5-0.4-7.1-0.9-10.7c-0.2-1.8-0.3-3.6-0.6-5.3c-1.2-7.3-5.2-12.9-11.3-17.1c-0.7-0.5-1.4-1.1-2-1.6
		c-0.1-1.3,0.2-2.4,0.7-3.5c2.2-4.3,3.5-8.9,5-13.4c0.3-0.8,0.2-1.7,0.3-2.6c1-1,2.3-0.6,3.5-0.6c13.2,0,26.4,0,39.6-0.1
		c1.2,0,2.4-0.1,3.7-0.2c1.2-0.1,2.4-0.3,3.6-0.4c2.3-0.1,4.7,0,7,0c1,0,2.1,0.1,3-0.2c1.7-0.5,3.3-0.4,5-0.5
		c4.8-0.2,9.6-0.5,14.4-0.7c0.3,0,0.7,0,1-0.1c1.5-0.6,3.1-0.4,4.6-0.5c1,0,2-0.1,3-0.2c1.2-0.1,2.4-0.3,3.6-0.4
		c0.8-0.1,1.6,0,2.3-0.1c2.9-0.4,5.7-0.9,8.6-1.2c3.2-0.4,6.4-0.7,9.6-1.3c5.9-1.1,11.9-1.8,17.8-2.9c5.6-1.1,11.1-2.4,16.6-3.7
		c4.4-1.1,8.8-2.4,13.3-3.4c7.4-1.8,14.6-4.2,21.8-6.5c6.9-2.2,13.6-4.9,20.4-7.4c0.9-0.3,1.9-0.5,2.8-0.8c0.7,1,0.6,1.9,0.3,2.7
		c-2,7.3-4,14.6-6.2,21.8c-1.1,3.7-2.4,7.4-3.9,11c-0.7,1.7-0.9,3.7-2.4,5.1c-3.9-2.4-8.1-3.1-12.5-2.3c-6.7,1.2-12.4,4.3-17,9.3
		c-3.3,3.6-5.8,7.6-6.9,12.4c-1.6,6.7-3.2,13.4-4.9,20.1c-3,12.2-6,24.4-9,36.6c-0.5,2-0.8,4.1-1.2,6.2c-0.3,0.8-0.7,1.7-1,2.5
		c-0.8,0.1-1.3,0.6-1.9,1.3c-1.3,1.5-2.7,3-4.1,4.4c-1.4,1.3-2.9,2.5-4.3,3.7c-3,2.7-5.9,5.4-8.9,8.1c-0.6,0.6-1.5,0.9-2.3,1.4
		c0-0.3,0-0.7,0-1c0.9-4.4,1.8-8.7,2.6-13.1c1-5.2,2.1-10.5,3.1-15.7c1.2-6.1,2.4-12.2,3.6-18.4c1.1-5.4,2.1-10.7,3.2-16.1
		c0.9-4.8,2-9.6,1.6-14.6c-0.4-4.9-2.4-9.2-6.3-12.2c-5.5-4.2-11.6-5.5-18.3-3.2c-5.3,1.8-9.9,4.6-13.1,9.3c-2.4,3.6-4,7.5-4.6,11.8
		c-0.4,3.1-0.5,6.2-0.8,9.3c0,0.4-0.1,0.9-0.1,1.3c-0.4,3.2-0.9,6.4-1.2,9.6c-0.3,3.3-0.5,6.7-0.8,10c0,0.2-0.1,0.4-0.1,0.7
		c-0.4,3.1-0.8,6.2-1.1,9.3c-0.3,3.3-0.5,6.7-0.8,10c0,0.2,0,0.4-0.1,0.7c-0.4,3.2-0.9,6.4-1.2,9.6c-0.3,3.3-0.5,6.7-0.8,10
		c0,0.2-0.1,0.4-0.1,0.7c-0.4,3.2-0.8,6.4-1.2,9.6c-0.3,3.3-0.5,6.7-0.8,10c0,0.2,0,0.5-0.1,0.7C324.5,670.7,324.8,673,324.9,675.2z
		"/>
	<path class="st6" d="M436.4,546.7c1.5-1.4,1.7-3.4,2.4-5.1c1.5-3.6,2.8-7.3,3.9-11c2.2-7.3,4.2-14.6,6.2-21.8
		c0.2-0.9,0.4-1.8-0.3-2.7c-0.9,0.2-1.8,0.5-2.8,0.8c-6.8,2.5-13.5,5.2-20.4,7.4c-7.2,2.3-14.4,4.7-21.8,6.5
		c-4.4,1.1-8.8,2.4-13.3,3.4c-5.5,1.3-11,2.7-16.6,3.7c-5.9,1.1-11.8,1.9-17.8,2.9c-3.2,0.6-6.4,0.9-9.6,1.3
		c-2.9,0.4-5.7,0.8-8.6,1.2c-0.8,0.1-1.6,0-2.3,0.1c-1.2,0.1-2.4,0.3-3.6,0.4c-1,0.1-2,0.2-3,0.2c-1.6,0.1-3.1-0.1-4.6,0.5
		c-0.3,0.1-0.7,0.1-1,0.1c-4.8,0.2-9.6,0.5-14.4,0.7c-1.7,0.1-3.3,0-5,0.5c-0.9,0.3-2,0.2-3,0.2c-2.3,0-4.7,0-7,0
		c-1.2,0-2.4,0.3-3.6,0.4c-1.2,0.1-2.4,0.2-3.7,0.2c-13.2,0-26.4,0-39.6,0.1c-1.2,0-2.5-0.4-3.5,0.6c-6.5,0-13,0-19.5,0.1
		c-1.5,0-3.1,0.4-4.6,0.4c-1.7,0.1-3.3,0-5,0c-1.4-0.1-2.9-0.4-4.3-0.4c-13.1-0.1-26.2-0.1-39.3-0.1c-1,0-2.1,0.1-3-0.1
		c-2.3-0.7-4.7-0.4-7-0.5c-1.6-0.1-3.2,0.1-4.7-0.2c-1.7-0.4-3.3-0.4-5-0.5c-3.8-0.2-7.6-0.5-11.3-0.7c-0.1,0-0.2,0-0.3,0
		c-3.2-0.4-6.4-0.8-9.6-1.2c-2.8-0.3-5.5-0.5-8.3-0.8c-2-0.2-4-0.5-6-0.8c-3.1-0.4-6.2-0.8-9.2-1.3c-0.5-0.2-0.9-0.4-1.4-0.6
		c-0.7-0.9-1.3-1.8-2-2.6c3.2,0.5,6.4,1,9.6,1.5c2.2,0.4,4.4,0.8,6.6,1.1c5.1,0.7,10.2,1.4,15.3,2c3.1,0.4,6.2,0.5,9.3,0.8
		c4,0.4,8,0.8,12,1.2c0.3,0,0.7,0.1,1,0.1c8.2,0.2,16.3,1,24.5,0.8c3.8-0.1,7.6,0.4,11.4,0.4c4.1,0,8.3-0.4,12.4-0.5
		c10.9-0.1,21.7,0.1,32.6-0.2c15.4-0.5,30.9-0.5,46.3-0.6c6.3-0.9,12.8-0.2,19.1-0.7c4.4-0.4,8.8-0.1,13-0.7c4.2-0.6,8.5-0.2,12.7-1
		c3.3-0.6,6.7-0.5,10-0.9c2.9-0.3,5.7-0.8,8.6-1.2c3.2-0.5,6.4-0.8,9.6-1.4c7.6-1.4,15.1-2.9,22.6-4.5c6.9-1.5,13.7-3.1,20.5-4.8
		c10.8-2.8,21.5-6,32-10c7.3-2.8,14.7-5.5,21.9-8.4c8.7-3.5,17.2-7.5,25.6-11.7c12.3-6.2,24.1-13.3,35.4-21.2
		c1.6-1.1,3.1-2.2,4.6-3.3c0.8,0.1,1.5,0.1,2.2,0.2c0.7,0.8,0.5,1.6,0.3,2.4c-0.7,2-1.3,4-2,6c-4.1,11.6-8.1,23.2-12.8,34.6
		c-0.9,2.2-1.6,4.4-2.5,6.6c-0.5,1.2-1.1,2.4-1.6,3.6c-2.2,0.6-4.2,1.2-6.2,1.9c-4.6,1.4-8.4,4-12.2,6.9c-3.9,2.9-6.5,6.7-9.1,10.7
		c-0.7,1.1-1.3,2.4-1.7,3.6c-5.3,13.6-10.6,27.3-15.9,40.9c-4.9,12.7-9.7,25.5-14.6,38.2c-3.4,8.8-6.9,17.5-10.3,26.2
		c-3,7.8-6.1,15.6-9,23.5c-0.7,1.8-1.7,3-3.3,3.9c-3.8,2.1-7.5,4.4-11.3,6.5c-1.5,0.8-3.1,1.4-4.6,2c-0.2,0.1-0.4-0.1-0.6-0.2
		c-0.3-0.9,0.2-1.7,0.5-2.5c2.6-7.9,5.2-15.7,7.9-23.5c4.1-12.1,8.2-24.1,12.2-36.2c5.3-15.7,10.6-31.3,15.9-47
		c0.3-0.7,0.5-1.5,0.8-2.2c1.8-4.1,2.4-8.4,1.9-12.8c-0.4-3.6-2-6.8-4.6-9.5c-0.8-0.7-1.6-1.2-2.7-1.1
		C436.4,547.1,436.4,546.9,436.4,546.7z"/>
	<path class="st7" d="M276.6,694.7c-0.1-1.8-0.1-3.6-0.2-5.4c-0.1-2.7-0.1-5.3-0.5-8c-0.4-2.8-0.1-5.8-0.2-8.7
		c0-1.9,0.1-3.8-0.5-5.7c-0.2-0.7-0.1-1.6-0.1-2.3c0-2.9,0-5.8-0.1-8.7c0-1.3-0.3-2.7-0.4-4c-0.1-0.9-0.2-1.8-0.2-2.7
		c0-2.8,0-5.6-0.1-8.4c0-1.6-0.3-3.1-0.5-4.6c-0.1-0.9-0.1-1.8-0.1-2.7c0-2.8,0-5.6-0.1-8.4c0-1.4-0.3-2.9-0.4-4.3
		c-0.1-0.9-0.1-1.8-0.2-2.7c0-2.8,0-5.6-0.1-8.4c0-1.4-0.3-2.9-0.4-4.3c-0.1-0.9-0.2-1.8-0.2-2.7c0-2.4,0-4.7-0.1-7.1
		c0-1.8-0.3-3.6-0.4-5.3c-0.4-4.7-0.8-9.4,0.6-14c1.3-4.4,3.7-8.3,7.6-11.2c3.7-2.8,7.8-4.4,12.4-4.3c9.6,0,17.6,6.4,20.1,15.4
		c0.6,2,1,4.1,0.8,6.3c-0.2,3.3,0,6.7-0.6,10c-0.4,2.5-0.1,5.1-0.2,7.7c0,1.3-0.3,2.7-0.4,4c0,0.4-0.1,0.9-0.2,1.3
		c-0.3,6.7-0.5,13.4-0.7,20.1c-0.1,1.7,0.1,3.3-0.5,5c-0.2,0.7-0.1,1.6-0.2,2.3c-0.2,3.8,0.1,7.6-0.6,11.4c-0.4,2.4-0.1,4.9-0.2,7.4
		c-0.1,1.4-0.3,2.9-0.4,4.3c0,0.4-0.2,0.9-0.1,1.3c0.3,6.5-0.9,12.9-0.8,19.4c0,2.1-0.4,4.2-0.6,6.3c0,0.3-0.1,0.5-0.1,0.8
		c-1.5,0.6-3,1.3-4.6,1.9c-6.1,2.2-12.3,4.5-18.5,6.6C282.2,693.3,279.4,694,276.6,694.7z"/>
	<path class="st7" d="M237.4,556.9c0.7,0.5,1.3,1.2,2,1.6c6.2,4.1,10.1,9.7,11.3,17.1c0.3,1.7,0.4,3.5,0.6,5.3
		c0.5,3.5,0.4,7.1,0.9,10.7c0.5,3.6,0.3,7.4,1.1,11c0.1,0.2,0.1,0.4,0.1,0.7c0.3,3.7,0.2,7.4,0.8,11c0.6,3.5,0.2,7.1,1.1,10.6
		c0.1,0.2,0.1,0.4,0.1,0.7c0.3,3.7,0.2,7.4,0.8,11c0.6,3.5,0.2,7.2,1.1,10.6c0,0.1,0,0.2,0,0.3c0.3,3.6,0.3,7.1,0.8,10.7
		c0.5,3.6,0.3,7.4,1.1,11c0.1,0.2,0.1,0.4,0.1,0.7c0.3,3.8,0.3,7.6,0.8,11.3c0.5,3.6,0.4,7.3,1.1,11c0.4,2,0.1,4,0.1,6
		c-2.5,0-4.9,0-7.4-0.1c-1.2,0-2.4-0.3-3.6-0.4c-0.6-0.1-1.1-0.2-1.7-0.2c-5-0.2-9.9-0.9-14.8-1.9c-1.1-0.2-2.2-0.1-3.3-0.2
		c-0.2-1.1-0.5-2.2-0.7-3.3c-0.8-4.6-1.7-9.2-2.5-13.8c-0.5-2.6-1-5.2-1.5-7.9c-0.8-4.5-1.6-9-2.4-13.5c-0.5-2.6-1.1-5.2-1.6-7.9
		c-0.9-4.6-1.7-9.2-2.5-13.8c-0.5-2.6-1-5.2-1.5-7.9c-0.8-4.5-1.6-9-2.4-13.5c-0.6-3.1-1.1-6.1-1.7-9.2c-0.4-2.1-0.9-4.1-1.4-6.2
		c0.1-0.9,0.1-1.8,0.2-2.6c0.5-0.2,1.1-0.3,1.4-0.7c0.9-1.1,1.8-2.3,2.6-3.5c3.5-5.2,7-10.6,10.1-16c2.9-5,5.7-10.1,8.2-15.3
		c0.5-1.1,1.2-2.1,1.1-3.4C236.6,556.9,237,556.9,237.4,556.9z"/>
	<path class="st7" d="M324.9,675.2c-0.1-2.2-0.3-4.5,0.4-6.7c0.1-0.2,0.1-0.4,0.1-0.7c0.3-3.3,0.4-6.7,0.8-10
		c0.3-3.2,0.8-6.4,1.2-9.6c0-0.2,0.1-0.4,0.1-0.7c0.3-3.3,0.4-6.7,0.8-10c0.3-3.2,0.8-6.4,1.2-9.6c0-0.2,0.1-0.4,0.1-0.7
		c0.3-3.3,0.4-6.7,0.8-10c0.3-3.1,0.8-6.2,1.1-9.3c0-0.2,0.1-0.4,0.1-0.7c0.3-3.3,0.4-6.7,0.8-10c0.3-3.2,0.8-6.4,1.2-9.6
		c0.1-0.4,0.1-0.9,0.1-1.3c0.2-3.1,0.4-6.2,0.8-9.3c0.6-4.3,2.2-8.2,4.6-11.8c3.2-4.8,7.8-7.6,13.1-9.3c6.7-2.2,12.8-1,18.3,3.2
		c3.9,3,5.9,7.2,6.3,12.2c0.4,5-0.6,9.8-1.6,14.6c-1.1,5.4-2.1,10.7-3.2,16.1c-1.2,6.1-2.4,12.2-3.6,18.4c-1,5.2-2.1,10.5-3.1,15.7
		c-0.9,4.4-1.8,8.7-2.6,13.1c-0.1,0.3,0,0.7,0,1c-0.2,0.4-0.4,0.9-0.6,1.3c-1.6,1-3.3,1.9-4.7,3.1c-5.1,4.2-10.6,7.7-16.1,11.3
		c-4.6,3.1-9.5,5.8-14.4,8.5C326.2,674.8,325.5,675,324.9,675.2z"/>
	<path class="st8" d="M105,530.6c0.5,0.2,0.9,0.4,1.4,0.6c0.6,1,1.1,1.9,1.7,2.9c1.2,2,2.5,4,3.4,6.2c2,4.8,3.8,9.8,5.6,14.7
		c1.7,4.4,3.3,8.8,5,13.1c2,5.2,4,10.4,5.9,15.6c2.3,6.3,4.6,12.6,7,18.8c2.7,7.2,5.6,14.3,8.3,21.5c3.5,9.2,6.8,18.4,10.3,27.6
		c0.7,1.8,1,3.9,2.5,5.4c0.5,1.6,0.9,3.1,1.4,4.7c0.5,1.5,1.4,3,1.3,4.7c-0.7-0.2-1.6-0.3-2.2-0.7c-1.3-0.9-2.5-1.8-3.7-2.9
		c-1.1-1-2.2-1.5-3.5-0.6c-0.4-0.3-0.7-0.4-1-0.6c-3-3.2-5.9-6.4-9-9.5c-1.3-1.4-2.3-2.9-3.1-4.7c-4.7-11.8-9.5-23.6-14.2-35.4
		c-6-15-12-30.1-18-45.1c-4.6-11.4-9.3-22.8-13.9-34.2c-0.5-1.3-1.3-2.5-1.2-4.2c3,0.2,5.8,0.8,8.7,1.3
		C100.2,530,102.6,530.3,105,530.6z"/>
	<path class="st9" d="M214.6,691.3c-2.7,0.1-5.2-1-7.8-1.7c-4.3-1.1-8.6-2.5-12.8-4c-4.3-1.5-8.5-3.2-13.1-4.9
		c-0.2,0.2-0.6,0.6-1,0.9c-0.2,0-0.5,0.1-0.6,0c-5.5-2.5-10.9-5.2-15.9-8.6c-0.7-0.4-1.4-0.8-1.9-1.4c-0.4-0.5-0.5-1.2-0.7-1.8
		c0.9-0.2,1.4,0.4,2.1,0.8c4.7,3.2,9.6,6,14.8,8.5c0.5,0.3,1.1,0.8,1.9,0c-0.3-0.9-0.5-1.8-0.9-2.8c-2.7-8.1-5.4-16.3-8.1-24.4
		c-0.7-2.1-1.5-4.2-1.6-6.4c3.1-2.8,6.4-5.5,9.4-8.5c3.7-3.7,7.2-7.6,10.8-11.3c1.6-1.7,3.4-3.2,4.6-5.2c0.7-1,1.6-1.8,2.6-2.6
		c0.4-0.3,1-0.4,1.5-0.6c0.1,0.8,0.1,1.6,0.3,2.3c2.1,9.1,4.3,18.2,6.5,27.3c2.1,9,4.1,18,6.2,27c1.1,4.9,2.4,9.7,3.5,14.6
		C214.5,689.5,214.5,690.4,214.6,691.3z"/>
	<path class="st7" d="M436.4,546.7c0,0.2-0.1,0.4-0.1,0.7c-0.6,1.7-1.3,3.3-2,5c-1.1,2.7-2.3,5.3-3.4,8c-1.1,2.5-2.2,5.1-3.5,7.6
		c-3.6,6.8-7.1,13.6-11.2,20.2c-1.7,2.7-3.3,5.6-5.1,8.2c-2.8,4.1-5.7,8.2-8.7,12.3c-2.9,3.8-5.8,7.6-8.8,11.3
		c-2.1,2.6-4.4,5-6.7,7.5c-0.6,0.6-1.4,1-2.1,1.6c0.4-2.1,0.7-4.1,1.2-6.2c3-12.2,6-24.4,9-36.6c1.6-6.7,3.3-13.4,4.9-20.1
		c1.2-4.8,3.6-8.8,6.9-12.4c4.6-5,10.3-8.1,17-9.3C428.3,543.6,432.6,544.4,436.4,546.7z"/>
	<path class="st10" d="M214.6,691.3c-0.1-0.9-0.1-1.8-0.3-2.6c-1.1-4.9-2.4-9.7-3.5-14.6c-2.1-9-4.1-18-6.2-27
		c-2.1-9.1-4.3-18.2-6.5-27.3c-0.2-0.8-0.2-1.5-0.3-2.3c-0.2-0.5-0.4-0.9-0.6-1.4c0.4-0.3,1-0.6,1.3-1c1.2-1.4,2.4-2.9,3.6-4.3
		c2.7-2.9,5-6.1,7.4-9.3c0.8-1.1,1.4-2.6,2.9-3c0.5,2.1,1,4.1,1.4,6.2c0.6,3.1,1.1,6.1,1.7,9.2c0.8,4.5,1.6,9,2.4,13.5
		c0.5,2.6,1,5.2,1.5,7.9c0.9,4.6,1.7,9.2,2.5,13.8c0.5,2.6,1.1,5.2,1.6,7.9c0.8,4.5,1.6,9,2.4,13.5c0.5,2.6,1,5.2,1.5,7.9
		c0.9,4.6,1.7,9.2,2.5,13.8c0.2,1.1,0.4,2.2,0.7,3.3c-0.2,0.6-0.3,1-1.1,0.8c-3.5-0.7-7-1.3-10.4-1.9c-0.2,0-0.4-0.2-0.6-0.2
		C216.5,694.2,215.3,693.1,214.6,691.3z"/>
	<path class="st11" d="M361.9,651.6c0.2-0.4,0.4-0.9,0.6-1.3c0.8-0.4,1.6-0.8,2.3-1.4c3-2.7,5.9-5.4,8.9-8.1
		c1.4-1.3,2.9-2.4,4.3-3.7c1.4-1.4,2.8-2.9,4.1-4.4c0.5-0.6,1-1.2,1.9-1.3c-1.4,6.1-2.8,12.2-4.3,18.2c-2.7,11.2-5.5,22.3-8.2,33.5
		c-0.8,3.1-1.5,6.3-2.2,9.5c-0.3,1.3-0.9,1.9-2.2,2.1c-2.3,0.4-4.6,0.9-6.9,1.3c-2,0.4-4,0.6-5.9,1c-0.9-0.9-0.6-1.8-0.4-2.6
		c0.9-5,2-10.1,2.9-15.1c1.5-7.7,3-15.3,4.4-23C361.4,654.7,361.6,653.1,361.9,651.6z"/>
	<path class="st5" d="M168.9,645.6c0.1,2.3,0.9,4.3,1.6,6.4c2.7,8.1,5.4,16.3,8.1,24.4c0.3,0.9,0.6,1.9,0.9,2.8
		c-0.7,0.8-1.3,0.3-1.9,0c-5.1-2.5-10-5.3-14.8-8.5c-0.6-0.4-1.2-1-2.1-0.8c-0.4-0.6-0.9-1.2-1.2-1.8c-0.3-0.5-0.5-1.1-0.8-1.6
		c0.1-1.7-0.8-3.2-1.3-4.7c-0.5-1.5-1-3.1-1.4-4.7c2.4-2.1,4.9-4.2,7.3-6.3c0.8-0.7,1.7-1.4,2.6-2.1c1-0.9,2.2-1.6,2.3-3.1
		C168.5,645.6,168.7,645.6,168.9,645.6z"/>
	<path class="st11" d="M307.9,683.9c0-0.3,0.1-0.5,0.1-0.8c2.4-0.1,4.4-1.3,6.5-2.3c2.4-1.1,4.7-2.4,7.1-3.5
		c0.8-0.4,1.6-0.6,2.5-0.9c0,2.3-0.1,4.6-0.5,7c-0.4,2.5-0.4,5.1-0.8,7.6c-0.4,2.5-0.5,5.1-0.8,7.6c-0.1,1.3-0.6,1.7-1.9,1.9
		c-1.6,0.2-10.6,0.1-12.5-0.2c-0.7-1.8-0.5-3.7-0.2-5.5C308.1,691.3,307.9,687.6,307.9,683.9z"/>
	<path class="st11" d="M261.6,698c3.3,0.3,6.2-1.1,9.3-1.6c1.8-0.3,3.5-1.2,5.4-1.1c0.2,1.6,0.4,3.2,0.6,5c-0.8,0.2-1.4,0.3-2.1,0.4
		c-3.9,0.2-7.7-0.4-11.5-0.7C262.2,699.9,261.7,699.1,261.6,698z"/>
	<path class="st12" d="M500.4,276c0,0,0.3,0,0.3,0c0.8,1,1.8,0.7,2.8,0.7c0,0,0,0,0,0c0.7,1,1.8,0.6,2.7,0.7c0,0,0,0,0,0
		c1,1.4,2.5,1.4,4.1,1.4c0,0,0,0,0,0c0.5,0.8,1.3,0.7,2,0.7c0,0,0,0,0,0c0.5,0.4,1,0.9,1.6,1.1c5.4,1.9,10.5,4.4,15.3,7.4
		c5,3,9.8,6.3,14,10.2c4.6,4.2,9,8.6,12.7,13.8c4.5,6.3,8.2,13,10.8,20.3c1.6,4.6,2.8,9.4,3.5,14.2c0.5,3,0.3,6,1.2,8.9
		c-0.2,4.2,0.5,8.5-0.6,12.7c-0.2,0.6,0,1.3-0.1,2c-0.3,2.8-0.6,5.5-1.1,8.3c-0.6,3.1-1.4,6.1-2.1,9.1c-0.2,0.8-0.1,1.5-0.2,2.3
		c0,0,0,0,0,0c-0.4,0.9-0.9,1.7-1.3,2.7c-1.6,4-3,8.2-4.8,12.1c-3.9,8.5-8.9,16.3-14.9,23.4c-3.4,4.1-6.8,8.3-10.4,12.2
		c-4.3,4.8-9.2,9.1-14.1,13.4c-1.5,1.3-3.1,2.6-4.6,3.8c-3.2,2.4-6.4,4.8-9.6,7.2c-0.6,0.4-0.8,1-0.8,1.7c0,0,0,0,0,0
		c-1.7,0-1.7,0-2,1.4l0,0c-1.7,0-1.7,0-2,1.4l0,0c-1.2-0.1-2.2,0.1-2.7,1.4l0,0c-1,0-1.7,0.4-2,1.4c0,0,0,0,0,0
		c-1.4,0.2-2.7,0.6-3.4,2c0,0,0,0,0,0c-1.6,0.4-3.2,0.7-3.5,2.7c0,0-0.3,0-0.3,0c-0.6,0.1-1.4,0-1.9,0.2c-1.3,0.7-2.5,1.6-3.7,2.5
		c0,0,0,0,0,0c-0.9,0.3-1.9,0.6-2.8,1.1c-5.4,2.6-10.8,5.3-16.3,7.8c-4,1.8-8,3.4-12,5c-0.5,0.2-1.1,0.3-1.6,0.1
		c-0.3-0.1-0.6-0.6-0.7-0.9c-0.1-0.3,0.1-0.6,0.2-0.9c1-3.2,2.1-6.3,3-9.5c1.9-7.1,3.3-14.3,3.4-21.7c0-0.4,0.1-0.9,0.2-1.3
		c0.2-1.3,0.4-2.6,0.4-4c0.1-2.9,0-5.8,0-8.7c0-0.8,0.1-1.6-0.1-2.3c-1.1-3.2,0-6.7-1.2-9.9c-0.4-1.2,0.1-2.4,1.2-3.2
		c4.7-3.6,9.3-7.2,14-10.8c0.8-0.6,1.6-1.3,1.5-2.4c0,0,0,0,0,0c2.3-0.2,2.3-0.2,2.7-2.3c0.1-0.2,0.3-0.4,0.5-0.4
		c2.6-0.2,2.8-0.4,3.6-2.7c0,0,0,0,0,0c2.2-0.2,2.3-0.2,2.7-2.3c0.4-0.4,0.8-0.7,1.2-1.1c1.3,0.1,2.5-0.1,2.8-1.6
		c0.4-0.6,0.8-1.1,1.2-1.7c2.6-0.2,2.9-0.5,3.5-2.9c0.1-0.2,0.2-0.3,0.5-0.4c1.2,0.2,2.2-0.2,3-1.1c0.8-0.9,1.7-1.7,2.7-2.6
		c3-2.6,6.1-5.2,9.1-7.9c2.4-2.2,4.6-4.5,6.6-7.1c2.2-2.7,4.2-5.5,5.8-8.6c3.5-6.5,6.8-13.1,8.7-20.3c0.7-2.7,1.9-5.3,0.7-8.1
		c0-0.1,0-0.2,0-0.3c-0.1-4.4-1.2-8.6-2.7-12.7c-1.6-4.3-3.7-8.4-6.9-11.8c-5.7-5.9-12.7-8.9-21-9c-2.5,0-4.9,0.1-7.4,0
		c-2.9-0.2-5.8,0.4-8.6,0.9c-5.8,1.1-11.5,2.4-17.3,3.8c-7.1,1.7-13.9,4.1-20.5,7.1c-2.6,1.2-5.3,2.3-7.8,3.9
		c-0.5,0.3-1,0.5-1.5,0.7c-1.2,0.5-1.9,0.1-2.4-1c-0.7-1.9-1.4-3.8-2.1-5.6c-2.4-6.5-5.6-12.7-9-18.7c-4-7.1-8.7-13.8-13.7-20.2
		c-0.3-0.4-0.4-0.9-0.7-1.5c0.8-0.2,1.4-0.2,1.9-0.4c7.7-2.4,15.4-4.4,23.4-5.4c1.7-0.2,3.3-0.4,4.9-0.7c3.7-0.7,7.5-1.2,11.3-1.2
		c1.6,0,3.1,0.1,4.6-0.5c0.7-0.3,1.5-0.2,2.3-0.2c7.3,0,14.6,0,21.8,0c0.7,0,1.4-0.1,2,0.1c1.9,0.7,3.8,0.5,5.6,0.5
		c0.6,0,1.2-0.1,1.7,0.1c2.1,0.8,4.2,0.5,6.3,0.5c0,0,0,0,0,0c0.9,1.2,2.2,0.6,3.4,0.7c0,0,0,0,0,0
		C498.3,276.3,499.4,275.9,500.4,276z M564.7,363.4c0-0.6,0-1.3,0-2c0.1-3.9-1.8-6.8-4.9-9c-1.6-1.1-3.5-1.7-5.4-1.5
		c-4.4,0.4-7.9,3.2-9.2,7.2c-0.8,2.6-0.8,5.3-0.5,8c0.7,5.7,1.2,11.3,0.6,17c-0.8,8.1-3.2,15.5-8,22.1c-4.2,5.8-9.1,11.1-14.3,16
		c-6.6,6.2-13.3,12.3-20,18.5c-3.1,2.9-6.3,5.7-9.4,8.6c-1.2,1.1-2.3,2.4-3,4c-0.8,1.8-0.2,3.3,1.6,4.1c1.6,0.7,3.1,0.6,4.8-0.2
		c10.8-5.1,20.8-11.4,29.9-19.1c12.9-10.9,23.2-23.9,29.9-39.5C561.5,386.7,564.1,375.3,564.7,363.4z"/>
	<path class="st13" d="M474.6,417.1c0.1,1.2-0.7,1.8-1.5,2.4c-4.7,3.6-9.3,7.2-14,10.8c-1.1,0.8-1.6,2-1.2,3.2
		c1.1,3.2,0.1,6.7,1.2,9.9c0.2,0.7,0.1,1.6,0.1,2.3c0,2.9,0.1,5.8,0,8.7c0,1.3-0.3,2.6-0.4,4c-0.1,0.4-0.2,0.9-0.2,1.3
		c-0.1,7.4-1.5,14.6-3.4,21.7c-0.8,3.2-2,6.4-3,9.5c-0.1,0.3-0.3,0.7-0.2,0.9c0.1,0.4,0.4,0.9,0.7,0.9c0.5,0.1,1.1,0.1,1.6-0.1
		c4-1.6,8.1-3.2,12-5c5.5-2.5,10.9-5.2,16.3-7.8c0.9-0.4,1.9-0.7,2.8-1.1c-0.2,0.4-0.3,0.9-0.6,1.1c-0.7,0.5-1.5,0.9-2.3,1.3
		c-4.1,2.1-8.2,4.1-12.3,6.2c-7.4,3.7-15,7-22.7,9.9c-9.5,3.6-19.1,7.1-28.7,10.4c-9.8,3.4-19.9,6.1-30,8.4
		c-9.7,2.3-19.4,4.3-29.1,6.1c-5,0.9-10.1,1.9-15.2,2.3c-2.5,0.2-5.1,0.7-7.6,1.1c-0.1,0-0.2,0-0.3,0c-3.2,0.3-6.4,0.5-9.7,0.8
		c-1.9,0.1-3.8-0.1-5.7,0.6c-0.4,0.1-0.9,0.1-1.3,0.1c-3.5,0.1-6.9,0.1-10.4,0.6c-2.4,0.4-4.9,0.1-7.4,0.1c-2.5,0.1-4.9-0.1-7.3,0.5
		c-0.8,0.2-1.8,0.1-2.7,0.1c-5.7,0-11.4,0-17.1,0.1c-2.3,0-4.7-0.1-7,0.5c-1,0.2-2,0.1-3,0.1c-16.1,0-32.3,0-48.4,0.1
		c-2.3,0-4.7-0.2-7,0.5c-0.8,0.2-1.8,0.1-2.7,0.1c-9.7,0-19.5,0-29.2,0c-1.3,0-2.7-0.3-4-0.4c-1.1-0.1-2.2-0.1-3.3-0.2
		c-3.7-0.2-7.4,0.3-11-0.6c-0.3-0.1-0.7,0-1,0c-4.5-0.3-8.9-0.4-13.4-0.8c-3.1-0.3-6.2-0.8-9.3-1.1c-2.2-0.2-4.4-0.4-6.7-0.7
		c-6.1-0.8-12.1-1.7-18.2-2.7c-13-2-25.8-4.9-38.6-8.3c-11.1-3-22.1-6.5-32.6-11.1c-3.2-1.4-6.1-3.2-9.2-4.9
		c-0.8-0.4-1.4-1.1-2.2-1.8c0.6-0.5,0.9-1,1.3-1.2c1.5-0.6,3.1-1.3,4.7-1.7c6.1-1.5,12.2-2.6,18.6-2c3.4,0.3,6.9,0.7,10.3,1.1
		c0.2,0,0.4,0.1,0.7,0.1c3.3,0.3,6.7,0.5,10,0.8c3.7,0.3,7.3,0.8,11,1.1c0.2,0,0.4,0.1,0.7,0.1c4,0.3,8,0.5,12,0.8
		c1.3,0.1,2.7,0.3,4,0.4c0.3,0,0.7,0.1,1,0.1c4.3,0.3,8.7,0.5,13,0.7c2.2,0.1,4.4,0.2,6.7,0.5c2.6,0.4,5.4,0.2,8,0.2
		c2.2,0,4.5-0.1,6.7,0.5c0.8,0.2,1.8,0.1,2.7,0.1c5.7,0,11.4,0,17.1,0.1c2.9,0,5.8,0.2,8.7,0.4c4.4,0.3,8.9,0.6,13.4-0.3
		c1-0.2,2-0.1,3-0.1c5.6,0,11.2,0,16.8-0.1c2.8,0,5.6,0,8.4-0.5c2.7-0.4,5.6-0.1,8.4-0.2c1.4,0,2.9-0.3,4.3-0.4c0.3,0,0.7-0.1,1-0.1
		c4.4,0.2,8.7-0.5,13-0.8c1.7-0.1,3.3-0.3,5-0.5c0.4,0,0.9-0.1,1.3-0.1c4.5,0,8.9-0.7,13.3-1.3c3-0.4,6-0.5,9-0.8
		c2.9-0.3,5.7-0.8,8.6-1.1c2.4-0.3,4.9-0.6,7.3-0.8c4.8-0.5,9.5-1.1,14.2-1.9c3.7-0.6,7.5-1,11.3-1.6c3.7-0.6,7.5-1.3,11.2-2
		c7.3-1.5,14.6-3,21.9-4.7c7.9-1.9,15.7-4.2,23.5-6.5c9.8-3,19.5-6.6,29-10.4c4.6-1.8,9-3.9,13.5-6c4.2-1.9,8.3-3.8,12.4-5.9
		c7.7-4,15.4-8.2,22.9-12.6c8.6-5.1,17-10.4,25.2-16c3.2-2.2,6.3-4.6,9.5-6.9C473.4,417.5,474,417.3,474.6,417.1z M247.5,522.6
		c0.7-0.3,1.5-0.5,2.2-0.8c1.4-0.6,2.9-1.1,4.2-1.9c0.7-0.4,1.4-1.1,1.8-1.9c0.9-1.3,0.7-2.5-0.4-3.6c-1-1.1-2.3-1.7-3.7-2.1
		c-0.1-1.6,0-3.1,0.5-4.6c0.8-2.6,1.4-5.2,1.9-7.8c0.1-0.6,0-1.3,0-2c-2-0.5-4-0.5-5.8-0.1c-1.7,0.4-3.3,0.4-5,0.5
		c-0.7,0-1.4,0-2,0.2c-1.5,0.6-3.1,0.4-4.6,0.5c-1,0-2.1-0.2-3,0.1c-2.2,0.7-4.4,0.5-6.7,0.5c-1.2,0-2.5-0.2-3.7,0.2
		c-1.8,0.5-3.5,0.4-5.3,0.5c-1.9,0-3.9-0.3-5.7,0.1c-2.6,0.6-5.1,0.5-7.7,0.5c-3.2,0-6.5,0-9.7,0c-1,0-2,0.2-3,0.3
		c-1.1,0.1-2.2,0.4-3.3,0.4c-10.1,0-20.1,0-30.2,0c-0.7,0-1.4,0.1-2-0.1c-2.2-0.7-4.4-0.5-6.7-0.5c-4.6,0-9.2,0-13.8,0
		c-1,0-2-0.1-3-0.2c-1.3-0.1-2.6-0.4-4-0.4c-2.5-0.1-4.9,0-7.4,0c-0.7,0-1.4,0.1-2-0.1c-2.6-0.9-5.3-0.5-8-0.6
		c-1.2,0-2.5,0.2-3.7-0.2c-2.1-0.6-4.2-0.5-6.3-0.5c-1,0-2.1,0.2-3-0.1c-2.1-0.6-4.2-0.5-6.3-0.6c-3.4-0.2-6.9-0.9-10.3-0.7
		c-0.2,0-0.5,0-0.7-0.1c-1.4-0.6-2.9-0.4-4.3-0.5c-0.9,0-1.8,0.1-2.7-0.1c-3.1-1-6.4-0.6-9.6-1.1c-3.3-0.5-6.6-1.2-10-0.9
		c-0.4,0-0.9-0.2-1.3-0.2c-1-0.1-2-0.3-3-0.4c-2.1,0-4.2,0.3-6.3,0.5c-2.9,0.3-5.7,0.9-8.5,1.6c-0.9,0.2-1.8,0.6-2.7,0.9
		c0.5,1.4,1.6,1.8,2.6,2.2c4.3,1.9,8.5,3.9,12.9,5.6c5,1.9,10.1,3.5,15.2,5.1c1.9,0.6,3.8,1.1,5.8,1.6c8.3,2,16.6,4.3,25.1,5.6
		c6.4,1,12.6,2.5,19,3.7c1.3,0.3,2.6,0.5,3.9,0.7c3.7,0.5,7.5,0.9,11.2,1.5c3.2,0.5,6.3,1.2,9.6,1.2c0.4,0,0.9,0.1,1.3,0.2
		c2.9,0.4,5.7,0.9,8.6,1.1c2.4,0.2,4.9,0.2,7.3,0.6c3.4,0.5,6.9-0.1,10.3,0.8c7.4,0,14.8,0,22.2,0c0.6,0,1.2-0.4,1.8-0.6
		c3.7,0,7.3,0.3,11,0.4c6.6,0.3,13.1,0.1,19.7,0c2.1,0,4.2-0.3,6.3-0.4c0.6,0.2,1.2,0.6,1.8,0.6c5.6,0,11.2,0,16.8,0
		c0.3,0,0.6-0.1,1-0.2C247.3,525.7,247.6,524.2,247.5,522.6z"/>
	<path class="st13" d="M494.2,274.6c-2.1,0-4.2,0.2-6.3-0.5c-0.5-0.2-1.1-0.1-1.7-0.1c-1.9,0-3.8,0.1-5.6-0.5
		c-0.6-0.2-1.3-0.1-2-0.1c-7.3,0-14.6,0-21.8,0c-0.8,0-1.6-0.1-2.3,0.2c-1.5,0.6-3.1,0.5-4.6,0.5c-3.8,0-7.5,0.5-11.3,1.2
		c-1.6,0.3-3.3,0.5-4.9,0.7c-8,1-15.8,2.9-23.4,5.4c-0.5,0.2-1.1,0.2-1.9,0.4c0.3,0.6,0.4,1.1,0.7,1.5c5.1,6.4,9.8,13.1,13.7,20.2
		c3.4,6,6.6,12.2,9,18.7c0.7,1.9,1.4,3.8,2.1,5.6c0.5,1.2,1.3,1.5,2.4,1c0.5-0.2,1-0.4,1.5-0.7c2.4-1.6,5.1-2.7,7.8-3.9
		c6.6-3.1,13.5-5.4,20.5-7.1c5.7-1.4,11.5-2.7,17.3-3.8c2.8-0.5,5.7-1.1,8.6-0.9c2.5,0.1,4.9,0,7.4,0c8.2,0.1,15.2,3,21,9
		c3.2,3.4,5.3,7.4,6.9,11.8c1.5,4.1,2.6,8.3,2.7,12.7c0,0.1,0,0.2,0,0.3c1.2,2.8,0,5.4-0.7,8.1c-1.9,7.2-5.2,13.8-8.7,20.3
		c-1.7,3-3.7,5.8-5.8,8.6c-2,2.6-4.2,4.9-6.6,7.1c-2.9,2.7-6.1,5.3-9.1,7.9c-0.9,0.8-1.8,1.7-2.7,2.6c-0.8,0.9-1.8,1.2-3,1.1
		c4.2-4.2,8.4-8.4,12.5-12.7c3.3-3.5,6.3-7.3,9.2-11.1c2.4-3.2,4.5-6.7,6.5-10.2c2.7-4.9,4.6-10.1,5.7-15.7c0.6-3.1,0.8-6.2,0.5-9.3
		c-0.3-2.7-1-5.5-1.9-8.1c-2.7-8-7.8-14-15.5-17.6c-3.2-1.4-6.5-2.3-10-2.8c-2.3-0.4-4.7-0.5-7-0.5c-3.5,0-6.9,0.6-10.3,1.1
		c-7.2,1-14.2,3-21,5.5c-4.5,1.7-9,3.4-13.4,5.4c-5.1,2.3-10.2,4.7-15.1,7.3c-5,2.6-10,5.5-14.9,8.5c-2.5,1.5-4.6,3.5-6.9,5.3
		c-7.7,5.9-15.8,11.4-24.2,16.2c-3,1.7-6,3.5-9,5.1c-3,1.5-6,2.9-9.1,4.3c-5.9,2.6-12,4.8-18.4,6.2c-4.4,0.9-8.8,1.8-13.2,1.6
		c-6.5-0.3-12.5-1.9-17.9-5.7c-4.1-2.9-7-6.9-9.3-11.3c-3-5.8-3.5-12-1.8-18.2c0.9-3.6,2.5-6.9,4.7-9.9c2.7-3.7,5.5-7.4,8.9-10.4
		c3.9-3.4,7.9-6.6,12-9.6c8.9-6.4,18.5-11.7,28.6-16.2c1.1-0.5,2.1-1.2,3.2-1.8c13-7.5,26.7-13.5,41.1-17.8
		c7.2-2.2,14.4-3.9,21.8-5.2c5.3-0.9,10.6-1.5,15.9-2.1c8.6-0.9,17.2-0.5,25.8-0.4c3.8,0,7.6,0.4,11.3,1.1c3.5,0.6,7.1,1,10.6,1.5
		C493.2,274,493.7,274.4,494.2,274.6z"/>
	<path class="st13" d="M567.4,389.6c0.1-0.8,0-1.6,0.2-2.3c0.7-3,1.5-6,2.1-9.1c0.5-2.7,0.7-5.5,1.1-8.3c0.1-0.7-0.1-1.4,0.1-2
		c1.1-4.2,0.4-8.5,0.6-12.7c-0.9-2.9-0.7-5.9-1.2-8.9c-0.8-4.9-1.9-9.6-3.5-14.2c-2.5-7.3-6.2-14-10.8-20.3
		c-3.7-5.1-8.1-9.5-12.7-13.8c-4.3-3.9-9.1-7.2-14-10.2c-4.9-2.9-10-5.5-15.3-7.4c-0.6-0.2-1.1-0.7-1.6-1.1c2.7-0.3,5,1,7.4,1.8
		c1.4,0.4,2.7,1,4.1,1.5c1.7,0.8,3.6,1.4,5.1,2.4c5.2,3.4,10.5,6.9,14.9,11.3c1.7,1.6,3.6,3,5.2,4.7c6.8,7.3,12.7,15.3,16.9,24.4
		c2.9,6.3,4.9,12.9,6.3,19.7c1.3,6.7,1.6,13.5,1.1,20.3c-0.4,5.4-1.3,10.8-2.9,16.1c-0.6,1.9-1.1,3.9-1.7,5.8
		C568.4,388.1,567.8,388.8,567.4,389.6z"/>
	<path class="st13" d="M506.9,466.2c0-0.7,0.2-1.3,0.8-1.7c3.2-2.4,6.4-4.8,9.6-7.2c1.6-1.2,3.2-2.5,4.6-3.8
		c4.8-4.3,9.7-8.6,14.1-13.4c3.6-4,6.9-8.2,10.4-12.2c6-7.1,11-14.9,14.9-23.4c1.8-3.9,3.2-8.1,4.8-12.1c0.4-0.9,0.8-1.8,1.3-2.7
		c-0.3,3.6-1.3,7-2.5,10.4c-3.7,10.4-9.4,19.7-16,28.5c-4.7,6.2-10.1,11.9-15.8,17.3c-7.6,7.3-15.7,13.8-24.4,19.7
		C508.2,465.8,507.5,465.9,506.9,466.2z"/>
	<path class="st13" d="M485.4,478.9c1.2-0.8,2.4-1.7,3.7-2.5c0.5-0.3,1.3-0.2,1.9-0.2C489.4,477.7,487.7,478.9,485.4,478.9z"/>
	<path class="st13" d="M492.8,402c-0.6,2.5-0.9,2.7-3.5,2.9C490.2,403.8,491.3,402.6,492.8,402z"/>
	<path class="st13" d="M491.4,476.3c0.3-2,1.9-2.4,3.5-2.7c-0.3,0.4-0.4,1-0.8,1.3C493.2,475.4,492.3,475.8,491.4,476.3z"/>
	<path class="st13" d="M481.4,411.7c-0.8,2.3-1,2.5-3.6,2.7C478.7,413.2,479.9,412.3,481.4,411.7z"/>
	<path class="st13" d="M494.8,473.6c0.7-1.4,2-1.8,3.4-2C497.8,473.4,496.3,473.5,494.8,473.6z"/>
	<path class="st13" d="M484,409.4c-0.4,2-0.4,2.1-2.7,2.3C481.9,410.6,482.9,409.9,484,409.4z"/>
	<path class="st13" d="M510.3,278.6c-1.5,0.1-3,0-4.1-1.4C507.7,277.3,509.2,277.4,510.3,278.6z"/>
	<path class="st13" d="M477.3,414.8c-0.4,2.1-0.4,2.1-2.7,2.3C475.1,415.9,476.2,415.3,477.3,414.8z"/>
	<path class="st13" d="M500.2,470.2c0.5-1.3,1.5-1.5,2.7-1.4C502.4,470.1,501.4,470.4,500.2,470.2z"/>
	<path class="st13" d="M488.1,406.7c-0.3,1.6-1.5,1.7-2.8,1.6C485.9,407.3,486.9,406.9,488.1,406.7z"/>
	<path class="st13" d="M502.9,468.9c0.4-1.3,0.4-1.3,2-1.4C504.5,468.4,503.9,468.9,502.9,468.9z"/>
	<path class="st13" d="M504.9,467.5c0.4-1.3,0.4-1.3,2-1.4C506.6,467.1,505.9,467.5,504.9,467.5z"/>
	<path class="st13" d="M497.5,275.3c-1.1-0.1-2.4,0.5-3.4-0.7C495.3,274.7,496.6,274.2,497.5,275.3z"/>
	<path class="st13" d="M498.2,471.5c0.4-0.9,1-1.4,2-1.4C499.8,471.5,499.8,471.5,498.2,471.5z"/>
	<path class="st13" d="M506.3,277.3c-0.9-0.1-2,0.3-2.7-0.7C504.5,276.7,505.5,276.4,506.3,277.3z"/>
	<path class="st13" d="M503.6,276.6c-1,0-2.1,0.3-2.8-0.7C501.7,276,502.8,275.7,503.6,276.6z"/>
	<path class="st13" d="M500.4,276c-1-0.1-2.1,0.4-2.9-0.7C498.5,275.3,499.6,275.1,500.4,276z"/>
	<path class="st13" d="M512.3,279.3c-0.8,0-1.6,0.2-2-0.7C511,278.6,511.8,278.5,512.3,279.3z"/>
	<path class="st14" d="M270.4,208c0.7,0.2,1.5,0.4,2.2,0.7c5.2,2,10.5,3.5,16.1,4.2c5.4,0.7,10.6,0.1,15.9-0.7
		c7.9-1.2,15.3-3.9,22.1-8.2c0.2-0.1,0.4-0.2,0.6-0.2c1.3,0.6,2.7,1.1,3.9,1.8c3.9,2.4,7.7,4.9,11.6,7.3c0.7,0.5,1.6,0.8,2.3,1.1
		c3.1-1.5,6-3,8.9-4.4c1.9-0.9,3.8-2,5.7-2.8c5.5-2.2,11.1-4,16.9-5.2c4.7-0.9,9.3-1.9,14.2-1.7c1.6,0.1,3.3-0.2,5-0.3
		c0.1,0.3,0.2,0.6,0.3,0.9c-6.5,0-12.9,1.3-19.1,3c-8.2,2.2-16.2,5.2-23.9,8.8c-11,5.2-21.5,11.5-31.5,18.5
		c-6.3,4.4-12.5,9-18.4,13.9c-5.2,4.3-10.2,8.7-15.2,13.1c-8.5,7.5-16.4,15.6-24.1,23.8c-4.8,5-9.2,10.4-13.5,15.8
		c-5.8,7.4-11.4,14.9-16.6,22.8c-4,6.2-8.1,12.4-11.5,18.9c-2,3.9-4.3,7.6-6.3,11.5c-2.2,4.4-4.4,8.8-6.3,13.3
		c-2.2,4.9-4.2,9.9-6.2,14.9c-3,7.5-5.7,15.1-7.8,22.8c-0.6,2.1-1.4,4-2.6,5.8c-2.4,3.7-5.2,7-8.9,9.5c-3.3,2.2-6.8,3.9-10.7,4.7
		c-2.3,0.4-4.6,0.8-7,0.8c-7.9,0-15-2.4-21.1-7.3c-5.4-4.3-9-9.8-10.7-16.6c-1.5-6.1-1.8-12.2-1.2-18.3c0.7-7.4,2.2-14.8,4.5-21.9
		c2.2-6.6,4.6-13.1,7.4-19.4c4.9-10.9,10.8-21.4,17.1-31.5c5.7-9.1,11.7-18,18.2-26.5c2.4-3.1,5-6,7.4-9.1
		c6.2-7.7,13.2-14.6,20.3-21.5c2.8-2.7,5.9-5.1,8.8-7.7c4.2-3.8,8.8-7.3,13.4-10.6c5.3-3.7,10.7-7.4,16.2-10.8
		c7.1-4.5,14.5-8.4,22-12.1C269.3,208.9,269.8,208.4,270.4,208z M199.1,263.1c-0.7,0.7-1.2,1-1.6,1.4c-1.6,1.8-3.3,3.7-4.9,5.5
		c-2.5,2.9-4.9,5.7-7.3,8.7c-4.3,5.3-8.3,10.8-12,16.5c-4,6.2-7.9,12.4-12,18.6c-3.8,5.8-7,12-10.3,18c-0.9,1.7-1.6,3.4-2.3,5.2
		c-2.1,4.9-4.3,9.8-6.1,14.9c-2.4,6.6-4.5,13.3-5.5,20.3c-0.5,3.8-1.3,7.5-1.2,11.3c0.1,2,0,4,0,6c0,2.6,0.1,5.1,0.6,7.7
		c1.7,8,5.8,14.2,12.9,18.3c3.8,2.2,7.8,3.7,12.1,4.6c4.8,1,9.3,0.2,13.8-1.2c2.8-0.9,5.3-2.3,7.7-4c5.3-3.9,9.1-8.8,10.8-15.2
		c0.7-2.5,1.4-5,2.3-7.3c2.7-7.1,4.9-14.4,8.1-21.3c2.6-5.5,4.7-11.1,7.4-16.5c2.9-5.8,6-11.5,9.2-17.1c3-5.3,6.3-10.5,9.5-15.8
		c1-1.6,2-3.2,3.1-4.9c-9.6-18.1-20.4-35.4-32.6-51.8C200.5,264.2,199.8,263.8,199.1,263.1z"/>
	<path class="st15" d="M396,200.7c-0.1-0.3-0.2-0.6-0.3-0.9c-1.7,0.1-3.3,0.3-5,0.3c-4.8-0.2-9.5,0.8-14.2,1.7
		c-5.8,1.1-11.4,3-16.9,5.2c-2,0.8-3.8,1.8-5.7,2.8c-2.9,1.4-5.8,2.9-8.9,4.4c-0.7-0.3-1.5-0.7-2.3-1.1c-3.9-2.4-7.7-4.9-11.6-7.3
		c-1.2-0.7-2.6-1.2-3.9-1.8c2-1.6,4.1-3.1,5.9-4.9c1.8-1.8,3.4-3.8,5-5.8c1.9-2.5,3.4-5.2,4.7-8c1.6,0,3.1,0,4.6-0.5
		c1.7-0.5,3.5-0.2,5.3-0.6c2.8-0.6,5.7-0.7,8.6-0.9c1.7-0.1,3.3,0,5-0.5c1.3-0.3,2.7-0.2,4-0.2c2.1-0.1,4.2,0,6.3-0.5
		c1.5-0.4,3.1-0.1,4.7-0.1c0.7,0.8,1.6,0.6,2.5,0.6c4.2,0,8.5,0,12.7,0c0.9,0,1.9-0.2,2.7,0.1c2.1,0.7,4.2,0.5,6.3,0.5
		c0.9,0,1.8-0.1,2.7,0.2c1.5,0.5,3.1,0.5,4.6,0.5c0.9,0,1.8,0.2,2.6,0.3c1,0.1,2,0.3,3,0.4c3,0.4,5.9,0.8,8.9,1.1
		c2.4,0.2,4.8,1.2,7.2,0.9c0.2,0,0.3,0,0.5,0c1,0.9,1,0.9,2.1,0.1c0.5,0.2,0.9,0.4,1.4,0.6c0.4,0.6,0.8,0.8,1.3,0.1
		c4.5,1.5,8.8,3.1,12.9,5.4c3,1.7,6,3.4,8.3,6.1c3.6,3.9,5.5,8.5,5.7,13.9c0.2,6.5-1.6,12.5-4.1,18.4c-2,4.6-4.6,9-7.9,12.7
		c-3.1,3.5-6.2,7.1-10.2,9.6c-1.4,0.9-2.8,1.9-4.6,1.8c-0.5,0-1.1,0-1.6,0c-0.5-0.1-1.1,0.3-1.4-0.6c1-1.3,2.1-2.7,3.1-4
		c0.4-0.5,0.3-1-0.2-1.4c1-1.2,2.2-2.3,3-3.6c2.5-3.5,4.3-7.3,5.4-11.5c0.2-0.7,0.2-1.5,0.3-2.3c0-1.2,0-2.5,0-3.7
		c0.1-6.8-3.2-11.8-8.3-16c-6.1-5.1-13.5-7.3-21-9.2c-5.7-1.5-11.6-2.3-17.5-2.1C399.8,200.8,397.9,200.7,396,200.7z M434.1,200.8
		c1.1,0.6,1.9,0.9,2.7,1.3c2.1,1.3,4.3,2.4,6.3,3.9c7.1,5.6,10.2,12.7,8.3,21.8c-0.6,2.8-0.9,5.7-1.3,8.6c-0.2,1.5-0.3,3.1,0.9,4.6
		c0.6-0.2,1.3-0.2,1.7-0.7c1.3-1.5,2.7-3,3.7-4.7c2.9-4.8,4.5-10.2,5.4-15.8c0.5-3.5,0.7-7.1,0.1-10.7c-0.4-2.7-1.1-5.2-2.5-7.6
		c-3-4.9-7.6-7.4-13.1-7.3C441.4,194.4,437.4,196.6,434.1,200.8z"/>
	<path class="st16" d="M434.5,186.6c-2.5,0.3-4.8-0.7-7.2-0.9c-3-0.3-5.9-0.7-8.9-1.1c-1-0.1-2-0.3-3-0.4c-0.9-0.1-1.8-0.2-2.6-0.3
		c-1.6-0.1-3.1,0-4.6-0.5c-0.8-0.3-1.8-0.1-2.7-0.2c-2.1-0.1-4.2,0.2-6.3-0.5c-0.8-0.3-1.8-0.1-2.7-0.1c-4.2,0-8.5,0-12.7,0
		c-0.9,0-1.8,0.2-2.5-0.6c7,0,14,0,21.1,0c1.1,0,2.2,0.2,3.3,0.4c0.8,0.1,1.5,0.2,2.3,0.2c4.5-0.1,8.9,0.5,13.2,1.3
		c3.2,0.5,6.4,1,9.5,1.5C432.1,185.5,433.4,185.7,434.5,186.6z"/>
	<path class="st16" d="M439.7,249.1c0.6,0.4,0.7,0.8,0.2,1.4c-1,1.4-2.1,2.7-3.1,4c0.2,0.9,0.9,0.6,1.4,0.6c0.5,0.1,1.1,0,1.6,0
		c-1.4,0.9-2.9,1.6-4.6,1C435.4,253.7,436.6,251.7,439.7,249.1z"/>
	<path class="st16" d="M437,186.6c-1,0.8-1,0.8-2.1-0.1C435.6,186.6,436.3,186.6,437,186.6z"/>
	<path class="st16" d="M439.7,187.3c-0.5,0.7-0.9,0.6-1.3-0.1C438.8,187.3,439.2,187.3,439.7,187.3z"/>
	<path class="st17" d="M292.6,134.1c0.7-0.4,1.3-1,2-1.2c4.1-1.4,8.3-2.7,12.5-3.9c1.4-0.4,2.9-0.2,4.3-0.2c0.6,1.9,2.2,3,3.3,4.6
		c4.8,7,8.3,14.5,10,22.8c0.4,2,0.8,3.9,0.8,5.9c0.1,5.4,0.1,10.8-1.2,16.3c-1.1,4.8-2.8,9.4-5,13.7c-1.7,3.4-3.7,6.8-6.5,9.7
		c-1.4,1.4-2.6,3-3.9,4.6c-0.4,0.5-0.6,1.2-0.9,1.7c-3.1,0.9-6.3,1.5-9.5,1.4c-2.5-0.1-4.9-0.1-7.4,0c-4.7,0.2-9.1-1.1-13.4-2.5
		c-5-1.7-9.6-4.2-13.8-7.5c-4.6-3.7-8.8-7.9-11.7-13.2c-2.2-3.9-4-8-4.9-12.4c-0.6-3.2-1.4-6.4-1-9.6c0.5-4.4,1.3-8.8,3.2-12.9
		c1.4-3.1,2.9-6,4.9-8.8c2.9-4.1,6.4-7.4,11-9.5c3.1-1.4,6.2-2.2,9.7-2.3c4.9-0.1,9.5,0.8,14.2,2.1c0.3,1.9,0.5,2.1,2.2,1.8
		C291.8,134.6,292.2,134.3,292.6,134.1z M299.8,144.4c-0.3-1.3-1.2-1.7-2-1.9c-1.8-0.6-3.6-1.2-5.5-1.6c-5.6-1.1-11.1-0.9-16.7,0.1
		c-4.3,0.8-8.5,2.2-12.1,4.6c-2.6,1.8-4.9,4-6,7c-3.5,9.2,2.1,17.4,10,19.6c0.1-0.7,0.2-1.3,0.3-1.9c0.4-3.6,1-7.1,2.6-10.4
		c3.3-6.8,8.7-10.9,16.3-11.9c3.3-0.4,6.6-1.2,9.9-1.9C297.8,146,299,145.6,299.8,144.4z"/>
	<path class="st18" d="M307.9,208c0.3-0.6,0.5-1.2,0.9-1.7c1.3-1.6,2.5-3.1,3.9-4.6c2.8-2.8,4.8-6.2,6.5-9.7c2.2-4.3,3.9-8.9,5-13.7
		c1.2-5.4,1.3-10.8,1.2-16.3c0-2-0.4-4-0.8-5.9c-1.7-8.3-5.2-15.8-10-22.8c-1.1-1.6-2.7-2.7-3.3-4.6c1.2-1.2,2.7-0.6,4.1-0.5
		c1.2,0.1,2.4,0.3,3.6,0.6c3.1,0.7,6.1,1.8,8.4,3.9c3,2.6,6,5.3,8.2,8.8c3.1,4.7,5.1,9.9,6.3,15.4c1,4.6,1.3,9.3,0.8,14
		c-0.7,6.8-2.6,13.3-6.6,19.1c-4.1,5.7-9.1,10.4-15.4,13.5C316.7,205.5,312.5,207.2,307.9,208z"/>
	<path class="st4" d="M292.6,134.1c-0.4,0.2-0.8,0.5-1.2,0.5c-1.7,0.3-1.9,0.1-2.2-1.8c0.7,0,1.5,0.1,2.2,0.1
		C292,133,292.5,133.4,292.6,134.1z"/>
	<path class="st19" d="M168.2,645.6c-0.1,1.5-1.3,2.3-2.3,3.1c-0.8,0.7-1.7,1.4-2.6,2.1c-2.4,2.1-4.9,4.2-7.3,6.3
		c-1.5-1.5-1.8-3.6-2.5-5.4c-3.5-9.2-6.9-18.4-10.3-27.6c-2.7-7.2-5.6-14.4-8.3-21.5c-2.4-6.3-4.7-12.5-7-18.8
		c-2-5.2-3.9-10.4-5.9-15.6c-1.7-4.4-3.3-8.8-5-13.1c-1.9-4.9-3.6-9.8-5.6-14.7c-0.9-2.1-2.2-4.1-3.4-6.2c-0.5-1-1.1-1.9-1.7-2.9
		c3.1,0.4,6.2,0.8,9.2,1.3c2,0.3,4,0.6,6,0.8c2.8,0.3,5.5,0.5,8.3,0.8c3.2,0.4,6.4,0.8,9.6,1.2c0.1,0,0.2,0,0.3,0
		c3.8,0.3,7.6,0.5,11.3,0.7c1.7,0.1,3.3,0.1,5,0.5c1.5,0.3,3.1,0.2,4.7,0.2c2.3,0.1,4.7-0.1,7,0.5c0.9,0.3,2,0.1,3,0.1
		c13.1,0,26.2,0,39.3,0.1c1.4,0,2.9,0.3,4.3,0.4c1.7,0.1,3.3,0.1,5,0c1.5-0.1,3.1-0.4,4.6-0.4c6.5-0.1,13-0.1,19.5-0.1
		c-0.1,0.9,0,1.8-0.3,2.6c-1.5,4.5-2.9,9.1-5,13.4c-0.6,1.1-0.8,2.3-0.7,3.5c-0.4,0-0.9,0-1.3,0.1c-3.6-2.3-7.6-2.4-11.7-2
		c-4.1,0.5-7.8,2.2-10.6,5.2c-3.2,3.4-5.2,7.5-5.3,12.3c-0.1,2.4,0.1,4.9,0.6,7.3c1.1,5.1,1.9,10.3,2.9,15.4
		c0.1,0.3,0.4,0.5,0.6,0.8c-0.1,0.9-0.1,1.8-0.2,2.6c-1.6,0.4-2.1,1.9-2.9,3c-2.4,3.2-4.7,6.3-7.4,9.3c-1.3,1.4-2.4,2.9-3.6,4.3
		c-0.4,0.4-0.9,0.7-1.3,1c-0.5-2.6-1-5.2-1.6-7.8c-1.8-7.6-3.5-15.2-5.3-22.7c-1.7-6.9-3.4-13.8-5.1-20.7c-0.3-1.1-0.7-2.1-1.1-3.1
		c-1.6-3.6-3.8-6.8-6.8-9.5c-5.6-5.1-11.8-8.2-19.6-8c-4.4,0.1-8.2,1.4-11.4,4.8c-2.8,2.9-4.3,6.2-4.3,10.2c0,1.5-0.1,2.9,0,4.4
		c0.1,1.2,0.2,2.4,0.6,3.6c1.7,5.5,3.5,11.1,5.3,16.6c6.5,19.5,13,39,19.4,58.5C167.8,643.2,168,644.4,168.2,645.6z"/>
	<path class="st20" d="M212.6,595.9c-0.2-0.3-0.6-0.5-0.6-0.8c-1-5.1-1.8-10.3-2.9-15.4c-0.5-2.4-0.6-4.9-0.6-7.3
		c0.1-4.8,2.1-9,5.3-12.3c2.8-2.9,6.6-4.7,10.6-5.2c4-0.5,8-0.3,11.7,2c0.1,1.3-0.6,2.3-1.1,3.4c-2.5,5.2-5.3,10.2-8.2,15.3
		c-3.2,5.5-6.6,10.8-10.1,16c-0.8,1.2-1.6,2.4-2.6,3.5C213.8,595.5,213.1,595.6,212.6,595.9z"/>
	<path class="st20" d="M168.2,645.6c-0.3-1.2-0.5-2.4-0.9-3.6c-6.5-19.5-13-39-19.4-58.5c-1.8-5.5-3.6-11-5.3-16.6
		c-0.4-1.2-0.5-2.4-0.6-3.6c-0.1-1.4,0-2.9,0-4.4c-0.1-4,1.5-7.3,4.3-10.2c3.1-3.3,6.9-4.6,11.4-4.8c7.8-0.3,14,2.9,19.6,8
		c2.9,2.7,5.2,5.8,6.8,9.5c0.4,1,0.8,2.1,1.1,3.1c1.7,6.9,3.4,13.8,5.1,20.7c1.8,7.6,3.6,15.2,5.3,22.7c0.6,2.6,1.1,5.2,1.6,7.8
		c0.2,0.5,0.4,0.9,0.6,1.4c-0.5,0.2-1.1,0.2-1.5,0.6c-0.9,0.8-1.9,1.6-2.6,2.6c-1.3,2-3.1,3.5-4.6,5.2c-3.6,3.8-7.1,7.7-10.8,11.3
		c-3,3-6.2,5.7-9.4,8.5C168.7,645.6,168.5,645.6,168.2,645.6z"/>
	<path class="st21" d="M564.7,363.4c-0.6,11.9-3.2,23.3-7.9,34.2c-6.7,15.6-17,28.6-29.9,39.5c-9.1,7.7-19.1,14-29.9,19.1
		c-1.7,0.8-3.2,0.9-4.8,0.2c-1.8-0.8-2.4-2.3-1.6-4.1c0.7-1.6,1.7-2.9,3-4c3.1-2.9,6.3-5.7,9.4-8.6c6.7-6.1,13.4-12.2,20-18.5
		c5.2-4.9,10-10.2,14.3-16c4.8-6.6,7.2-14,8-22.1c0.6-5.7,0.1-11.4-0.6-17c-0.3-2.7-0.3-5.4,0.5-8c1.3-4,4.8-6.8,9.2-7.2
		c1.9-0.2,3.8,0.4,5.4,1.5c3.1,2.2,5,5.1,4.9,9C564.7,362.1,564.7,362.8,564.7,363.4z"/>
	<path class="st22" d="M189.7,526.7c-0.6,0.2-1.2,0.6-1.8,0.6c-7.4,0-14.8,0-22.2,0c-3.4-0.9-6.9-0.3-10.3-0.8
		c-2.4-0.4-4.9-0.4-7.3-0.6c-2.9-0.2-5.7-0.7-8.6-1.1c-0.4-0.1-0.9-0.2-1.3-0.2c-3.2,0-6.4-0.7-9.6-1.2c-3.7-0.6-7.5-1-11.2-1.5
		c-1.3-0.2-2.6-0.4-3.9-0.7c-6.3-1.3-12.6-2.8-19-3.7c-8.5-1.3-16.7-3.6-25.1-5.6c-1.9-0.5-3.9-1-5.8-1.6
		c-5.1-1.7-10.2-3.2-15.2-5.1c-4.4-1.7-8.6-3.7-12.9-5.6c-1-0.4-2.1-0.8-2.6-2.2c0.9-0.3,1.8-0.7,2.7-0.9c2.8-0.6,5.6-1.3,8.5-1.6
		c2.1-0.2,4.2-0.5,6.3-0.5c1,0,2,0.2,3,0.4c0.4,0.1,0.9,0.3,1.3,0.2c3.4-0.3,6.7,0.4,10,0.9c3.2,0.5,6.5,0.1,9.6,1.1
		c0.8,0.3,1.8,0.1,2.7,0.1c1.4,0,2.9-0.1,4.3,0.5c0.2,0.1,0.4,0.1,0.7,0.1c3.5-0.2,6.9,0.6,10.3,0.7c2.1,0.1,4.2-0.1,6.3,0.6
		c0.9,0.3,2,0.1,3,0.1c2.1,0.1,4.2-0.1,6.3,0.5c1.1,0.3,2.4,0.1,3.7,0.2c2.7,0.1,5.4-0.3,8,0.6c0.6,0.2,1.3,0.1,2,0.1
		c2.5,0,4.9,0,7.4,0c1.3,0,2.6,0.3,4,0.4c1,0.1,2,0.2,3,0.2c4.6,0,9.2,0,13.8,0c2.2,0,4.5-0.2,6.7,0.5c0.6,0.2,1.3,0.1,2,0.1
		c10.1,0,20.1,0,30.2,0c1.1,0,2.2-0.2,3.3-0.4c1-0.1,2-0.2,3-0.3c3.2,0,6.5,0,9.7,0c2.6,0,5.1,0.1,7.7-0.5c1.8-0.4,3.8-0.1,5.7-0.1
		c1.8,0,3.5,0,5.3-0.5c1.1-0.3,2.4-0.1,3.7-0.2c2.2-0.1,4.5,0.2,6.7-0.5c0.9-0.3,2-0.1,3-0.1c1.6,0,3.1,0.1,4.6-0.5
		c0.6-0.2,1.3-0.2,2-0.2c1.7,0,3.3-0.1,5-0.5c1.8-0.4,3.7-0.4,5.8,0.1c0,0.7,0.1,1.4,0,2c-0.6,2.6-1.2,5.2-1.9,7.8
		c-0.5,1.5-0.6,3.1-0.5,4.6c-1.3-0.5-2.5-0.4-3.9-0.2c-4.6,0.9-9.2,1.9-13.8,2.4c-2.1,0.3-4.2,0.3-6.3,0.7c-4.5,0.7-9.1,1-13.6,1.1
		c-4.7,0.2-9.4,0-14.1,0c-0.8,0-1.6,0-2.3-0.1c-4-0.4-8-0.8-12-1.2c-2.4-0.3-4.9-0.4-7.3-0.9c-5-0.9-10-2-15.1-3
		c-0.5-0.1-1.2-0.2-1.6-0.1c-1.8,0.6-3.5,1.4-4.8,3c-1,1.2-0.9,2.9,0.2,3.9c0.6,0.6,1.4,1.1,2.2,1.5c1.5,0.7,3,1.4,4.6,2
		c2.9,1,5.9,2.4,8.9,2.8c4.9,0.7,9.9,1.5,14.9,1.5C188.4,526,189.2,525.9,189.7,526.7z"/>
	<path class="st23" d="M189.7,526.7c-0.5-0.8-1.4-0.7-2.1-0.7c-5,0-10-0.8-14.9-1.5c-3-0.4-6-1.8-8.9-2.8c-1.6-0.6-3.1-1.2-4.6-2
		c-0.8-0.4-1.6-0.9-2.2-1.5c-1.1-1-1.2-2.7-0.2-3.9c1.2-1.5,3-2.3,4.8-3c0.5-0.2,1.1,0,1.6,0.1c5,1,10,2.1,15.1,3
		c2.4,0.4,4.9,0.6,7.3,0.9c4,0.4,8,0.8,12,1.2c0.8,0.1,1.6,0.1,2.3,0.1c4.7,0,9.4,0.1,14.1,0c4.6-0.1,9.1-0.4,13.6-1.1
		c2.1-0.3,4.2-0.4,6.3-0.7c4.7-0.6,9.2-1.5,13.8-2.4c1.4-0.3,2.6-0.3,3.9,0.2c1.4,0.4,2.7,1,3.7,2.1c1.1,1.2,1.3,2.3,0.4,3.6
		c-0.5,0.7-1.1,1.5-1.8,1.9c-1.3,0.8-2.8,1.3-4.2,1.9c-0.7,0.3-1.4,0.5-2.2,0.8c-0.9,0.1-1.8,0.1-2.6,0.3
		c-5.7,1.2-11.3,2.5-17.1,3.1c-0.4,0-0.7,0.4-1.1,0.6c-2.1,0.2-4.2,0.4-6.3,0.4c-6.6,0.1-13.1,0.2-19.7,0
		C197,527,193.4,526.7,189.7,526.7z"/>
	<path class="st22" d="M226.7,526.7c0.4-0.2,0.7-0.6,1.1-0.6c5.8-0.6,11.4-2,17.1-3.1c0.9-0.2,1.8-0.2,2.6-0.3
		c0.1,1.6-0.2,3.1-1.3,4.4c-0.3,0.1-0.6,0.2-1,0.2c-5.6,0-11.2,0-16.8,0C227.9,527.3,227.3,526.9,226.7,526.7z"/>
	<path class="st22" d="M199.1,263.1c0.7,0.7,1.4,1.2,1.8,1.8c12.2,16.4,23,33.7,32.6,51.8c-1.1,1.7-2.2,3.3-3.1,4.9
		c-3.2,5.2-6.5,10.4-9.5,15.8c-3.2,5.6-6.3,11.3-9.2,17.1c-2.7,5.4-4.8,11-7.4,16.5c-3.2,6.9-5.4,14.2-8.1,21.3
		c-0.9,2.4-1.6,4.9-2.3,7.3c-1.7,6.5-5.5,11.3-10.8,15.2c-2.4,1.7-4.9,3.1-7.7,4c-4.5,1.4-9,2.2-13.8,1.2c-4.3-0.9-8.4-2.3-12.1-4.6
		c-7.1-4.1-11.2-10.3-12.9-18.3c-0.5-2.6-0.6-5.1-0.6-7.7c0-2,0-4,0-6c-0.1-3.8,0.6-7.5,1.2-11.3c1-7,3.1-13.7,5.5-20.3
		c1.9-5,4.1-9.9,6.1-14.9c0.7-1.8,1.4-3.5,2.3-5.2c3.3-6.1,6.5-12.2,10.3-18c4-6.2,8-12.4,12-18.6c3.7-5.7,7.7-11.2,12-16.5
		c2.4-3,4.9-5.8,7.3-8.7c1.6-1.9,3.2-3.7,4.9-5.5C197.9,264.1,198.4,263.7,199.1,263.1z M187.5,400.1c-0.2-0.3-0.3-0.6-0.5-0.7
		c-0.4-0.2-0.8-0.4-1.3-0.4c-1.3-0.1-2.7,0-4-0.1c-7.1-0.2-13.6-2.3-19.3-6.6c-5.4-4.1-8.7-9.5-10.3-16c-0.8-3.2-1.4-6.6-2.3-9.8
		c-0.6-2-1.6-3.9-2.4-5.9c-0.3-0.6-0.8-1.1-1.2-1.6c-0.5-0.5-1.4-0.5-1.7,0.1c-0.7,1.2-1.4,2.3-1.7,3.6c-0.8,3.4-1.5,6.7-1.5,10.2
		c0.1,3,0.1,6,0.5,9c0.9,7.2,2.9,13.9,6.3,20.3c2,3.8,4.8,7.1,8.3,9.5c5.3,3.7,11.3,4.6,17.5,2.5
		C181.3,412.3,185.1,406.8,187.5,400.1z"/>
	<path class="st24" d="M434.1,200.8c3.3-4.2,7.4-6.4,12.1-6.5c5.6,0,10.1,2.4,13.1,7.3c1.4,2.3,2.1,4.9,2.5,7.6
		c0.5,3.6,0.4,7.1-0.1,10.7c-0.8,5.6-2.5,10.9-5.4,15.8c-1,1.7-2.4,3.2-3.7,4.7c-0.4,0.4-1.1,0.5-1.7,0.7c-1.2-1.5-1.1-3.1-0.9-4.6
		c0.4-2.9,0.7-5.8,1.3-8.6c1.9-9.1-1.2-16.3-8.3-21.8c-1.9-1.5-4.2-2.6-6.3-3.9C436,201.7,435.2,201.4,434.1,200.8z"/>
	<path class="st25" d="M299.8,144.4c-0.8,1.2-2,1.6-3.2,1.9c-3.3,0.7-6.6,1.4-9.9,1.9c-7.6,1-13,5-16.3,11.9
		c-1.6,3.3-2.2,6.8-2.6,10.4c-0.1,0.6-0.2,1.3-0.3,1.9c-7.9-2.3-13.4-10.4-10-19.6c1.1-3.1,3.4-5.2,6-7c3.7-2.5,7.8-3.8,12.1-4.6
		c5.5-1,11.1-1.3,16.7-0.1c1.9,0.4,3.7,0.9,5.5,1.6C298.6,142.8,299.5,143.1,299.8,144.4z"/>
	<path class="st23" d="M187.5,400.1c-2.4,6.7-6.3,12.1-13.6,14.5c-6.3,2-12.2,1.1-17.5-2.5c-3.5-2.4-6.3-5.7-8.3-9.5
		c-3.4-6.4-5.4-13.2-6.3-20.3c-0.4-3-0.5-6-0.5-9c-0.1-3.5,0.6-6.9,1.5-10.2c0.3-1.3,1.1-2.4,1.7-3.6c0.4-0.6,1.2-0.7,1.7-0.1
		c0.5,0.5,0.9,1,1.2,1.6c0.9,1.9,1.9,3.8,2.4,5.9c0.9,3.2,1.5,6.5,2.3,9.8c1.6,6.5,4.8,11.9,10.3,16c5.7,4.3,12.2,6.3,19.3,6.6
		c1.3,0,2.7,0,4,0.1c0.4,0,0.9,0.2,1.3,0.4C187.2,399.5,187.3,399.8,187.5,400.1z"/>
</g>
</svg>
